<?xml version="1.0" encoding="UTF-8" standalone="no"?>
<!-- Created with Inkscape (http://www.inkscape.org/) -->

<svg
   width="300mm"
   height="300mm"
   viewBox="0 0 300 300"
   version="1.1"
   id="svg1"
   xmlns="http://www.w3.org/2000/svg"
   xmlns:svg="http://www.w3.org/2000/svg">
  <defs
     id="defs1" />
  <g
     id="layer1">
    <path
       id="path3"
       style="fill:#000000;fill-opacity:1;stroke:none;stroke-width:1.40882"
       d="m 165.84438,122.58244 c -0.89413,3.2692 -2.39734,6.46554 -3.6028,9.63449 -2.67656,7.0361 -5.38607,14.06278 -8.01609,21.11386 -2.50155,6.70666 -4.99109,13.42679 -7.60847,20.08892 -2.45197,6.24113 -4.92807,12.53165 -7.14583,18.85898 -0.64639,1.84416 -2.67036,4.97738 -2.42206,6.93927 0.12143,0.95919 1.89483,0.64533 2.55666,0.64533 h 6.96963 c 0.68882,0 1.9225,0.23516 2.44231,-0.32868 1.05979,-1.14958 1.55028,-3.74246 2.10683,-5.20602 1.60536,-4.22159 3.13691,-8.46941 4.68626,-12.70932 4.91517,-13.45065 10.24968,-26.70828 15.64956,-39.97284 1.77594,-4.36254 3.45851,-8.76306 5.25064,-13.1193 0.47989,-1.16657 2.13199,-3.61654 1.69985,-4.88935 -0.35019,-1.03143 -2.31219,-0.60719 -3.13699,-0.66371 -3.1423,-0.21522 -6.27358,-0.39163 -9.4295,-0.39163 m -37.06821,2.41906 c -0.93952,0.30626 -1.81565,1.61663 -2.49466,2.29568 -1.81268,1.81281 -3.72249,3.51764 -5.5347,5.32973 -6.25438,6.25398 -12.80766,12.20516 -19.06399,18.44901 -1.64797,1.64469 -3.366131,3.27629 -5.124719,4.80174 -1.176368,1.02041 -2.497785,2.07478 -2.184332,3.80779 0.505347,2.7939 4.768078,5.29951 6.694091,7.17761 6.55422,6.39114 13.30065,12.67896 20.08891,18.8212 2.01246,1.82093 3.97779,3.691 5.94469,5.56128 0.65288,0.6208 1.66794,1.66112 2.66485,1.22343 2.01986,-0.88681 3.987,-3.75672 5.53455,-5.315 0.50414,-0.50765 1.45662,-1.22605 1.28103,-2.04988 -0.40521,-1.90101 -3.99453,-4.22528 -5.38064,-5.51636 -4.9876,-4.64571 -10.08089,-9.19876 -14.96421,-13.95459 -1.59651,-1.55484 -3.26785,-3.05156 -4.91972,-4.54756 -0.49398,-0.44736 -1.59754,-1.23449 -1.39254,-2.01509 0.18564,-0.70698 1.10143,-1.35098 1.59752,-1.84475 1.47327,-1.46636 3.03771,-2.83298 4.50976,-4.30493 4.81695,-4.81662 9.94187,-9.32692 14.7592,-14.14425 1.64264,-1.64261 4.56152,-3.43295 5.58643,-5.53469 0.41827,-0.85775 -0.55124,-1.69549 -1.08474,-2.25489 -1.47932,-1.55113 -2.97234,-3.10108 -4.38369,-4.71458 -0.50377,-0.57592 -1.24332,-1.56093 -2.13309,-1.2709 m 57.56711,0.64978 c -1.98624,0.39699 -4.35551,4.32468 -5.73969,5.74569 -0.49293,0.50601 -1.43684,1.23484 -1.17743,2.04988 0.27609,0.86746 1.35579,1.50419 1.99738,2.08471 1.32617,1.19994 2.56764,2.48897 3.89479,3.68981 4.87346,4.40963 9.47511,9.119 14.34922,13.52925 1.66791,1.50916 3.33147,3.08768 4.91975,4.67995 0.44161,0.44274 1.37897,1.11708 1.18753,1.8449 -0.20484,0.77876 -1.23361,1.40168 -1.80251,1.90343 -1.43582,1.26641 -2.74317,2.69103 -4.09977,4.04109 -4.82727,4.80399 -9.94222,9.32928 -14.75922,14.14441 -1.51615,1.51558 -4.70204,3.56193 -5.51698,5.53469 -0.37624,0.91079 0.65123,1.68984 1.21239,2.25488 1.49571,1.50608 2.98219,3.02694 4.5088,4.50168 0.48776,0.47119 1.28805,1.50476 2.05875,1.40773 0.87389,-0.11004 1.66761,-1.23065 2.24681,-1.80963 1.67731,-1.67666 3.44913,-3.24478 5.12472,-4.91974 6.324,-6.32156 12.7423,-12.58727 19.27703,-18.68957 2.0108,-1.87773 7.07046,-5.34928 6.71861,-8.36897 -0.28455,-2.44218 -2.83651,-3.97909 -4.47179,-5.54277 -4.18627,-4.00297 -8.40937,-7.99132 -12.50434,-12.08627 -4.18846,-4.18851 -8.47243,-8.44009 -12.91431,-12.35788 -0.97725,-0.86195 -3.05992,-3.92704 -4.50974,-3.63727" />
    <path
       id="path1"
       style="fill:#000000;fill-opacity:1;stroke:none;stroke-width:1.40882"
       d="m 51.870501,156.46448 c 10.464665,-1.23535 12.570032,15.9764 1.844901,17.12464 -10.810443,1.15737 -12.840898,-15.8266 -1.844901,-17.12464 M 137.35035,28.393816 c -0.77256,0.161048 -1.53278,0.490026 -2.25487,0.801439 -3.82636,1.650196 -3.87833,4.535356 -3.05048,8.111777 1.0482,4.528275 3.538,8.752819 3.08527,13.529272 -0.19577,2.065629 -0.18655,3.917662 -0.76837,5.94468 -0.21694,0.755747 -0.42198,1.837994 -1.32531,2.041181 -0.90976,0.204641 -2.04576,-0.442933 -2.86084,-0.770284 -3.60724,-1.448736 -5.52238,-4.792768 -7.6716,-7.830544 -3.64598,-5.153376 -7.70785,-13.784733 -15.49216,-12.409264 -1.52754,0.269924 -3.10611,0.782521 -4.50976,1.440152 -1.55493,0.728498 -3.303553,1.607608 -4.684384,2.630976 -0.901413,0.668066 -0.664494,1.84983 -0.40775,2.803434 0.661776,2.458091 2.190022,4.253896 3.806524,6.149669 4.66335,5.468991 16.41193,15.497587 8.05025,22.290348 -4.25282,3.454836 -8.3842,1.524182 -11.889205,-1.996439 -4.589482,-4.609925 -7.199133,-10.690731 -12.504486,-14.630138 -3.071272,-2.280527 -7.034733,-3.383269 -10.453647,-1.032076 -4.374484,3.008323 -2.655154,7.068191 -0.02151,10.537489 4.131186,5.442018 11.688944,9.275301 10.738511,17.014085 -0.12778,1.041035 -0.03028,2.544119 -0.660666,3.437194 -0.600976,0.851359 -2.018672,0.50504 -2.882505,0.32047 -2.77223,-0.592346 -5.307518,-1.996614 -7.789588,-3.295338 -7.495253,-3.92184 -16.811066,-8.776365 -23.506351,-0.667314 -1.813953,2.196974 -2.1693,5.393696 0.343389,7.217953 3.467745,2.51765 8.382161,2.3298 9.545903,7.33626 1.695177,7.292722 -4.995643,12.472002 -5.798054,19.268962 -0.458488,3.88369 2.695107,7.64676 1.632952,11.47938 -0.297389,1.07308 -0.862579,1.98045 -1.518753,2.86984 -6.418637,8.69991 -16.143522,-5.02785 -22.90831,1.85377 -5.356893,5.44942 -0.604486,14.68519 0.824546,20.90003 1.149931,5.00103 -1.517582,8.9123 -1.849648,13.73425 -0.26569,3.85812 2.173173,6.70338 3.173692,10.24945 1.333692,4.72691 -0.08575,11.03316 3.43499,14.94504 1.674383,1.86041 4.445491,1.82771 6.492265,0.66023 3.80283,-2.16916 6.648051,-5.93465 10.04446,-8.67566 2.247682,-1.81394 4.76129,-3.8381 7.068479,-0.98193 3.049142,3.77467 1.293173,6.98361 -2.353732,9.35578 -4.740201,3.08332 -15.54562,4.53964 -15.371168,11.55009 0.06322,2.54085 1.669093,4.52413 3.250087,6.35482 3.231723,3.74213 7.224054,6.22075 11.096135,9.20125 8.912504,6.8603 14.902521,16.91948 12.386333,28.31157 -0.599885,2.716 -1.653476,5.16944 -2.546229,7.78959 -0.25872,0.75932 -1.056299,2.21811 -0.601681,2.994 0.434502,0.74154 1.696972,0.75266 2.445949,0.84226 6.724844,0.80469 11.600201,-4.73544 14.964207,-9.78094 5.908144,-8.86137 7.35367,-19.6992 4.42212,-29.92839 -2.125869,-7.41794 -6.402415,-14.81838 -6.402415,-22.75377 0,-8.39276 4.233197,-16.19034 4.027171,-24.59868 -0.06874,-2.80836 -1.592616,-8.59546 -4.916729,-9.26279 -1.074006,-0.2156 -2.378841,1.04123 -3.484816,1.19846 -2.756623,0.39192 -5.791421,-2.19775 -7.010595,-4.44001 -1.233537,-2.26867 0.06069,-4.13081 2.09086,-5.32591 3.160838,-1.86071 7.832657,-2.34792 7.562446,-7.17841 -0.232446,-4.15539 -5.571048,-7.618 -8.090421,-10.45744 -1.205925,-1.35914 -2.736367,-2.92315 -2.401664,-4.91673 0.643906,-3.83529 4.6708,-8.74037 8.669329,-9.2661 2.529078,-0.33254 5.092935,1.0306 7.584605,0.5607 1.800994,-0.33964 3.248741,-1.74779 4.504695,-2.99749 3.328766,-3.31226 5.70652,-7.56575 8.854384,-11.05089 5.372445,-5.94806 11.964315,-11.608072 18.414205,-16.367162 10.55769,-7.790033 24.54599,-10.531587 37.30798,-11.751136 6.2976,-0.601805 13.72197,-0.891122 19.88394,0.862996 10.16142,2.892616 20.89362,6.64983 29.51842,12.93865 10.17673,7.420422 17.1199,16.932892 23.02204,27.845922 10.22108,18.89878 16.7369,40.02896 10.61466,61.29171 -1.13151,3.92976 -4.02223,9.51589 -7.39811,11.9327 -2.92692,2.09537 -7.10293,2.4554 -8.831,6.10632 -0.6755,1.42714 -0.22172,2.83489 -0.01,4.30477 0.3358,2.33568 0.7403,4.81169 0.63379,7.17462 -0.16996,3.7707 -3.54857,7.99332 -5.97142,10.65928 -5.80702,6.38959 -14.75227,9.09428 -21.28405,14.61511 -1.95808,1.655 -3.49438,3.45083 -5.05323,5.47395 -1.06927,1.38773 -2.07343,3.02064 -3.7613,3.70405 -3.0418,1.23161 -6.31089,-0.40841 -9.42949,0.27076 -1.51893,0.33081 -2.91559,1.63422 -4.30476,2.32923 -4.40386,2.20336 -8.62886,4.71723 -12.91432,7.13826 -1.77744,1.00416 -4.80643,1.71575 -6.23096,3.12952 -0.89048,0.88377 0.23699,2.57855 0.83577,3.29297 1.72618,2.05957 5.07044,2.89797 7.65008,3.07564 5.00374,0.34459 9.97228,-0.79083 14.7592,-2.05527 2.53579,-0.66982 5.19558,-1.26371 7.37961,-2.80199 2.76559,-1.94789 4.0329,-5.82221 7.17461,-7.17573 3.71173,-1.59909 7.35176,1.68037 11.27438,0.34558 4.86617,-1.65581 9.35026,-5.69879 13.52928,-8.58294 7.38829,-5.09896 15.84134,-9.21842 21.48589,-16.40434 2.86991,-3.65362 -1.92406,-9.12895 0.99094,-12.89277 1.72815,-2.23142 5.26107,-1.19562 7.65654,-1.25446 2.65504,-0.0653 5.47098,-1.4632 7.34481,-3.31241 5.49828,-5.42601 9.91799,-12.61172 12.04154,-20.05334 1.53004,-5.36186 1.88084,-11.15087 3.29151,-16.60411 1.16941,-4.52054 4.75421,-8.65495 4.13774,-13.52927 -0.22032,-1.74209 -1.69013,-2.55097 -2.83108,-3.69058 -1.46782,-1.46614 -2.80644,-3.28645 -3.32967,-5.32894 -1.86924,-7.29678 7.19866,-14.34242 1.59675,-21.31804 -3.53866,-4.40644 -8.57345,-5.69865 -13.64205,-7.62478 -2.79673,-1.06281 -5.87139,-3.24634 -6.13052,-6.52026 -0.63989,-8.08422 10.13739,-5.59343 14.74006,-4.94647 0.96306,0.13538 3.15974,0.92106 4.03477,0.55911 1.15668,-0.47843 0.47856,-3.51309 0.35699,-4.42717 -0.55522,-4.17553 -0.83751,-8.84383 -3.18036,-12.504332 -2.87073,-4.48528 -7.60287,-6.25324 -12.69079,-4.70669 -2.39515,0.72805 -4.41462,2.461 -6.76463,3.13794 -2.86195,0.82444 -6.956,-1.75624 -8.21617,-4.17094 -1.09795,-2.10382 0.0126,-4.678913 1.37339,-6.354658 2.81139,-3.463794 8.42852,-4.964026 9.75596,-9.634482 1.54243,-5.426877 -5.3501,-7.894678 -6.61927,-12.504329 -0.52593,-1.910209 -0.30367,-3.793495 -0.17036,-5.73969 0.0569,-0.831015 0.44423,-1.862867 -0.4587,-2.371761 -2.79628,-1.576052 -6.43709,0.03466 -9.39911,-0.09617 -2.20855,-0.09754 -4.00292,-1.503262 -5.73971,-2.74443 -0.83451,-0.596375 -3.16953,-3.027441 -4.24545,-2.42396 -1.53583,0.861419 -2.76558,3.392427 -3.83612,4.766469 -2.21508,2.843045 -4.76523,5.562453 -7.70257,7.670797 -1.73282,1.243772 -4.01893,2.951845 -6.14967,1.778164 -3.2103,-1.768331 -3.19066,-5.646856 -2.75168,-8.833995 0.65846,-4.780681 1.51512,-10.583305 -0.41837,-15.169183 -1.6007,-3.796625 -5.53471,-6.181198 -9.33427,-7.292599 -5.03717,-1.473432 -10.20719,-2.38252 -15.37417,-3.251045 -4.70774,-0.79133 -9.32161,-1.769908 -14.14425,-1.31091 -0.62925,0.05988 -2.01411,-0.0099 -2.33618,0.64532 -0.66292,1.348818 0.10956,4.59296 0.25151,6.08451 0.41759,4.387945 0.42573,8.931908 0.23171,13.324282 -0.0986,2.231409 -1.20406,6.431154 -4.09172,6.110908 -2.82167,-0.312913 -4.45371,-3.12608 -5.41084,-5.49594 -2.25981,-5.596031 -1.81472,-11.593709 -5.58171,-16.604103 -1.60458,-2.134192 -4.72939,-4.809608 -7.66115,-4.19847 m 43.25267,104.643057 -0.20499,0.205 0.20499,-0.205" />
    <script
       id="mesh_polyfill"
       type="text/javascript">
!function(){const t=&quot;http://www.w3.org/2000/svg&quot;,e=&quot;http://www.w3.org/1999/xlink&quot;,s=&quot;http://www.w3.org/1999/xhtml&quot;,r=2;if(document.createElementNS(t,&quot;meshgradient&quot;).x)return;const n=(t,e,s,r)=&gt;{let n=new x(.5*(e.x+s.x),.5*(e.y+s.y)),o=new x(.5*(t.x+e.x),.5*(t.y+e.y)),i=new x(.5*(s.x+r.x),.5*(s.y+r.y)),a=new x(.5*(n.x+o.x),.5*(n.y+o.y)),h=new x(.5*(n.x+i.x),.5*(n.y+i.y)),l=new x(.5*(a.x+h.x),.5*(a.y+h.y));return[[t,o,a,l],[l,h,i,r]]},o=t=&gt;{let e=t[0].distSquared(t[1]),s=t[2].distSquared(t[3]),r=.25*t[0].distSquared(t[2]),n=.25*t[1].distSquared(t[3]),o=e&gt;s?e:s,i=r&gt;n?r:n;return 18*(o&gt;i?o:i)},i=(t,e)=&gt;Math.sqrt(t.distSquared(e)),a=(t,e)=&gt;t.scale(2/3).add(e.scale(1/3)),h=t=&gt;{let e,s,r,n,o,i,a,h=new g;return t.match(/(\w+\(\s*[^)]+\))+/g).forEach(t=&gt;{let l=t.match(/[\w.-]+/g),d=l.shift();switch(d){case&quot;translate&quot;:2===l.length?e=new g(1,0,0,1,l[0],l[1]):(console.error(&quot;mesh.js: translate does not have 2 arguments!&quot;),e=new g(1,0,0,1,0,0)),h=h.append(e);break;case&quot;scale&quot;:1===l.length?s=new g(l[0],0,0,l[0],0,0):2===l.length?s=new g(l[0],0,0,l[1],0,0):(console.error(&quot;mesh.js: scale does not have 1 or 2 arguments!&quot;),s=new g(1,0,0,1,0,0)),h=h.append(s);break;case&quot;rotate&quot;:if(3===l.length&amp;&amp;(e=new g(1,0,0,1,l[1],l[2]),h=h.append(e)),l[0]){r=l[0]*Math.PI/180;let t=Math.cos(r),e=Math.sin(r);Math.abs(t)&lt;1e-16&amp;&amp;(t=0),Math.abs(e)&lt;1e-16&amp;&amp;(e=0),a=new g(t,e,-e,t,0,0),h=h.append(a)}else console.error(&quot;math.js: No argument to rotate transform!&quot;);3===l.length&amp;&amp;(e=new g(1,0,0,1,-l[1],-l[2]),h=h.append(e));break;case&quot;skewX&quot;:l[0]?(r=l[0]*Math.PI/180,n=Math.tan(r),o=new g(1,0,n,1,0,0),h=h.append(o)):console.error(&quot;math.js: No argument to skewX transform!&quot;);break;case&quot;skewY&quot;:l[0]?(r=l[0]*Math.PI/180,n=Math.tan(r),i=new g(1,n,0,1,0,0),h=h.append(i)):console.error(&quot;math.js: No argument to skewY transform!&quot;);break;case&quot;matrix&quot;:6===l.length?h=h.append(new g(...l)):console.error(&quot;math.js: Incorrect number of arguments for matrix!&quot;);break;default:console.error(&quot;mesh.js: Unhandled transform type: &quot;+d)}}),h},l=t=&gt;{let e=[],s=t.split(/[ ,]+/);for(let t=0,r=s.length-1;t&lt;r;t+=2)e.push(new x(parseFloat(s[t]),parseFloat(s[t+1])));return e},d=(t,e)=&gt;{for(let s in e)t.setAttribute(s,e[s])},c=(t,e,s,r,n)=&gt;{let o,i,a=[0,0,0,0];for(let h=0;h&lt;3;++h)e[h]&lt;t[h]&amp;&amp;e[h]&lt;s[h]||t[h]&lt;e[h]&amp;&amp;s[h]&lt;e[h]?a[h]=0:(a[h]=.5*((e[h]-t[h])/r+(s[h]-e[h])/n),o=Math.abs(3*(e[h]-t[h])/r),i=Math.abs(3*(s[h]-e[h])/n),a[h]&gt;o?a[h]=o:a[h]&gt;i&amp;&amp;(a[h]=i));return a},u=[[1,0,0,0,0,0,0,0,0,0,0,0,0,0,0,0],[0,0,0,0,1,0,0,0,0,0,0,0,0,0,0,0],[-3,3,0,0,-2,-1,0,0,0,0,0,0,0,0,0,0],[2,-2,0,0,1,1,0,0,0,0,0,0,0,0,0,0],[0,0,0,0,0,0,0,0,1,0,0,0,0,0,0,0],[0,0,0,0,0,0,0,0,0,0,0,0,1,0,0,0],[0,0,0,0,0,0,0,0,-3,3,0,0,-2,-1,0,0],[0,0,0,0,0,0,0,0,2,-2,0,0,1,1,0,0],[-3,0,3,0,0,0,0,0,-2,0,-1,0,0,0,0,0],[0,0,0,0,-3,0,3,0,0,0,0,0,-2,0,-1,0],[9,-9,-9,9,6,3,-6,-3,6,-6,3,-3,4,2,2,1],[-6,6,6,-6,-3,-3,3,3,-4,4,-2,2,-2,-2,-1,-1],[2,0,-2,0,0,0,0,0,1,0,1,0,0,0,0,0],[0,0,0,0,2,0,-2,0,0,0,0,0,1,0,1,0],[-6,6,6,-6,-4,-2,4,2,-3,3,-3,3,-2,-1,-2,-1],[4,-4,-4,4,2,2,-2,-2,2,-2,2,-2,1,1,1,1]],f=t=&gt;{let e=[];for(let s=0;s&lt;16;++s){e[s]=0;for(let r=0;r&lt;16;++r)e[s]+=u[s][r]*t[r]}return e},p=(t,e,s)=&gt;{const r=e*e,n=s*s,o=e*e*e,i=s*s*s;return t[0]+t[1]*e+t[2]*r+t[3]*o+t[4]*s+t[5]*s*e+t[6]*s*r+t[7]*s*o+t[8]*n+t[9]*n*e+t[10]*n*r+t[11]*n*o+t[12]*i+t[13]*i*e+t[14]*i*r+t[15]*i*o},y=t=&gt;{let e=[],s=[],r=[];for(let s=0;s&lt;4;++s)e[s]=[],e[s][0]=n(t[0][s],t[1][s],t[2][s],t[3][s]),e[s][1]=[],e[s][1].push(...n(...e[s][0][0])),e[s][1].push(...n(...e[s][0][1])),e[s][2]=[],e[s][2].push(...n(...e[s][1][0])),e[s][2].push(...n(...e[s][1][1])),e[s][2].push(...n(...e[s][1][2])),e[s][2].push(...n(...e[s][1][3]));for(let t=0;t&lt;8;++t){s[t]=[];for(let r=0;r&lt;4;++r)s[t][r]=[],s[t][r][0]=n(e[0][2][t][r],e[1][2][t][r],e[2][2][t][r],e[3][2][t][r]),s[t][r][1]=[],s[t][r][1].push(...n(...s[t][r][0][0])),s[t][r][1].push(...n(...s[t][r][0][1])),s[t][r][2]=[],s[t][r][2].push(...n(...s[t][r][1][0])),s[t][r][2].push(...n(...s[t][r][1][1])),s[t][r][2].push(...n(...s[t][r][1][2])),s[t][r][2].push(...n(...s[t][r][1][3]))}for(let t=0;t&lt;8;++t){r[t]=[];for(let e=0;e&lt;8;++e)r[t][e]=[],r[t][e][0]=s[t][0][2][e],r[t][e][1]=s[t][1][2][e],r[t][e][2]=s[t][2][2][e],r[t][e][3]=s[t][3][2][e]}return r};class x{constructor(t,e){this.x=t||0,this.y=e||0}toString(){return`(x=${this.x}, y=${this.y})`}clone(){return new x(this.x,this.y)}add(t){return new x(this.x+t.x,this.y+t.y)}scale(t){return void 0===t.x?new x(this.x*t,this.y*t):new x(this.x*t.x,this.y*t.y)}distSquared(t){let e=this.x-t.x,s=this.y-t.y;return e*e+s*s}transform(t){let e=this.x*t.a+this.y*t.c+t.e,s=this.x*t.b+this.y*t.d+t.f;return new x(e,s)}}class g{constructor(t,e,s,r,n,o){void 0===t?(this.a=1,this.b=0,this.c=0,this.d=1,this.e=0,this.f=0):(this.a=t,this.b=e,this.c=s,this.d=r,this.e=n,this.f=o)}toString(){return`affine: ${this.a} ${this.c} ${this.e} \n       ${this.b} ${this.d} ${this.f}`}append(t){t instanceof g||console.error(&quot;mesh.js: argument to Affine.append is not affine!&quot;);let e=this.a*t.a+this.c*t.b,s=this.b*t.a+this.d*t.b,r=this.a*t.c+this.c*t.d,n=this.b*t.c+this.d*t.d,o=this.a*t.e+this.c*t.f+this.e,i=this.b*t.e+this.d*t.f+this.f;return new g(e,s,r,n,o,i)}}class w{constructor(t,e){this.nodes=t,this.colors=e}paintCurve(t,e){if(o(this.nodes)&gt;r){const s=n(...this.nodes);let r=[[],[]],o=[[],[]];for(let t=0;t&lt;4;++t)r[0][t]=this.colors[0][t],r[1][t]=(this.colors[0][t]+this.colors[1][t])/2,o[0][t]=r[1][t],o[1][t]=this.colors[1][t];let i=new w(s[0],r),a=new w(s[1],o);i.paintCurve(t,e),a.paintCurve(t,e)}else{let s=Math.round(this.nodes[0].x);if(s&gt;=0&amp;&amp;s&lt;e){let r=4*(~~this.nodes[0].y*e+s);t[r]=Math.round(this.colors[0][0]),t[r+1]=Math.round(this.colors[0][1]),t[r+2]=Math.round(this.colors[0][2]),t[r+3]=Math.round(this.colors[0][3])}}}}class m{constructor(t,e){this.nodes=t,this.colors=e}split(){let t=[[],[],[],[]],e=[[],[],[],[]],s=[[[],[]],[[],[]]],r=[[[],[]],[[],[]]];for(let s=0;s&lt;4;++s){const r=n(this.nodes[0][s],this.nodes[1][s],this.nodes[2][s],this.nodes[3][s]);t[0][s]=r[0][0],t[1][s]=r[0][1],t[2][s]=r[0][2],t[3][s]=r[0][3],e[0][s]=r[1][0],e[1][s]=r[1][1],e[2][s]=r[1][2],e[3][s]=r[1][3]}for(let t=0;t&lt;4;++t)s[0][0][t]=this.colors[0][0][t],s[0][1][t]=this.colors[0][1][t],s[1][0][t]=(this.colors[0][0][t]+this.colors[1][0][t])/2,s[1][1][t]=(this.colors[0][1][t]+this.colors[1][1][t])/2,r[0][0][t]=s[1][0][t],r[0][1][t]=s[1][1][t],r[1][0][t]=this.colors[1][0][t],r[1][1][t]=this.colors[1][1][t];return[new m(t,s),new m(e,r)]}paint(t,e){let s,n=!1;for(let t=0;t&lt;4;++t)if((s=o([this.nodes[0][t],this.nodes[1][t],this.nodes[2][t],this.nodes[3][t]]))&gt;r){n=!0;break}if(n){let s=this.split();s[0].paint(t,e),s[1].paint(t,e)}else{new w([...this.nodes[0]],[...this.colors[0]]).paintCurve(t,e)}}}class b{constructor(t){this.readMesh(t),this.type=t.getAttribute(&quot;type&quot;)||&quot;bilinear&quot;}readMesh(t){let e=[[]],s=[[]],r=Number(t.getAttribute(&quot;x&quot;)),n=Number(t.getAttribute(&quot;y&quot;));e[0][0]=new x(r,n);let o=t.children;for(let t=0,r=o.length;t&lt;r;++t){e[3*t+1]=[],e[3*t+2]=[],e[3*t+3]=[],s[t+1]=[];let r=o[t].children;for(let n=0,o=r.length;n&lt;o;++n){let o=r[n].children;for(let r=0,i=o.length;r&lt;i;++r){let i=r;0!==t&amp;&amp;++i;let h,d=o[r].getAttribute(&quot;path&quot;),c=&quot;l&quot;;null!=d&amp;&amp;(c=(h=d.match(/\s*([lLcC])\s*(.*)/))[1]);let u=l(h[2]);switch(c){case&quot;l&quot;:0===i?(e[3*t][3*n+3]=u[0].add(e[3*t][3*n]),e[3*t][3*n+1]=a(e[3*t][3*n],e[3*t][3*n+3]),e[3*t][3*n+2]=a(e[3*t][3*n+3],e[3*t][3*n])):1===i?(e[3*t+3][3*n+3]=u[0].add(e[3*t][3*n+3]),e[3*t+1][3*n+3]=a(e[3*t][3*n+3],e[3*t+3][3*n+3]),e[3*t+2][3*n+3]=a(e[3*t+3][3*n+3],e[3*t][3*n+3])):2===i?(0===n&amp;&amp;(e[3*t+3][3*n+0]=u[0].add(e[3*t+3][3*n+3])),e[3*t+3][3*n+1]=a(e[3*t+3][3*n],e[3*t+3][3*n+3]),e[3*t+3][3*n+2]=a(e[3*t+3][3*n+3],e[3*t+3][3*n])):(e[3*t+1][3*n]=a(e[3*t][3*n],e[3*t+3][3*n]),e[3*t+2][3*n]=a(e[3*t+3][3*n],e[3*t][3*n]));break;case&quot;L&quot;:0===i?(e[3*t][3*n+3]=u[0],e[3*t][3*n+1]=a(e[3*t][3*n],e[3*t][3*n+3]),e[3*t][3*n+2]=a(e[3*t][3*n+3],e[3*t][3*n])):1===i?(e[3*t+3][3*n+3]=u[0],e[3*t+1][3*n+3]=a(e[3*t][3*n+3],e[3*t+3][3*n+3]),e[3*t+2][3*n+3]=a(e[3*t+3][3*n+3],e[3*t][3*n+3])):2===i?(0===n&amp;&amp;(e[3*t+3][3*n+0]=u[0]),e[3*t+3][3*n+1]=a(e[3*t+3][3*n],e[3*t+3][3*n+3]),e[3*t+3][3*n+2]=a(e[3*t+3][3*n+3],e[3*t+3][3*n])):(e[3*t+1][3*n]=a(e[3*t][3*n],e[3*t+3][3*n]),e[3*t+2][3*n]=a(e[3*t+3][3*n],e[3*t][3*n]));break;case&quot;c&quot;:0===i?(e[3*t][3*n+1]=u[0].add(e[3*t][3*n]),e[3*t][3*n+2]=u[1].add(e[3*t][3*n]),e[3*t][3*n+3]=u[2].add(e[3*t][3*n])):1===i?(e[3*t+1][3*n+3]=u[0].add(e[3*t][3*n+3]),e[3*t+2][3*n+3]=u[1].add(e[3*t][3*n+3]),e[3*t+3][3*n+3]=u[2].add(e[3*t][3*n+3])):2===i?(e[3*t+3][3*n+2]=u[0].add(e[3*t+3][3*n+3]),e[3*t+3][3*n+1]=u[1].add(e[3*t+3][3*n+3]),0===n&amp;&amp;(e[3*t+3][3*n+0]=u[2].add(e[3*t+3][3*n+3]))):(e[3*t+2][3*n]=u[0].add(e[3*t+3][3*n]),e[3*t+1][3*n]=u[1].add(e[3*t+3][3*n]));break;case&quot;C&quot;:0===i?(e[3*t][3*n+1]=u[0],e[3*t][3*n+2]=u[1],e[3*t][3*n+3]=u[2]):1===i?(e[3*t+1][3*n+3]=u[0],e[3*t+2][3*n+3]=u[1],e[3*t+3][3*n+3]=u[2]):2===i?(e[3*t+3][3*n+2]=u[0],e[3*t+3][3*n+1]=u[1],0===n&amp;&amp;(e[3*t+3][3*n+0]=u[2])):(e[3*t+2][3*n]=u[0],e[3*t+1][3*n]=u[1]);break;default:console.error(&quot;mesh.js: &quot;+c+&quot; invalid path type.&quot;)}if(0===t&amp;&amp;0===n||r&gt;0){let e=window.getComputedStyle(o[r]).stopColor.match(/^rgb\s*\(\s*(\d+)\s*,\s*(\d+)\s*,\s*(\d+)\s*\)$/i),a=window.getComputedStyle(o[r]).stopOpacity,h=255;a&amp;&amp;(h=Math.floor(255*a)),e&amp;&amp;(0===i?(s[t][n]=[],s[t][n][0]=Math.floor(e[1]),s[t][n][1]=Math.floor(e[2]),s[t][n][2]=Math.floor(e[3]),s[t][n][3]=h):1===i?(s[t][n+1]=[],s[t][n+1][0]=Math.floor(e[1]),s[t][n+1][1]=Math.floor(e[2]),s[t][n+1][2]=Math.floor(e[3]),s[t][n+1][3]=h):2===i?(s[t+1][n+1]=[],s[t+1][n+1][0]=Math.floor(e[1]),s[t+1][n+1][1]=Math.floor(e[2]),s[t+1][n+1][2]=Math.floor(e[3]),s[t+1][n+1][3]=h):3===i&amp;&amp;(s[t+1][n]=[],s[t+1][n][0]=Math.floor(e[1]),s[t+1][n][1]=Math.floor(e[2]),s[t+1][n][2]=Math.floor(e[3]),s[t+1][n][3]=h))}}e[3*t+1][3*n+1]=new x,e[3*t+1][3*n+2]=new x,e[3*t+2][3*n+1]=new x,e[3*t+2][3*n+2]=new x,e[3*t+1][3*n+1].x=(-4*e[3*t][3*n].x+6*(e[3*t][3*n+1].x+e[3*t+1][3*n].x)+-2*(e[3*t][3*n+3].x+e[3*t+3][3*n].x)+3*(e[3*t+3][3*n+1].x+e[3*t+1][3*n+3].x)+-1*e[3*t+3][3*n+3].x)/9,e[3*t+1][3*n+2].x=(-4*e[3*t][3*n+3].x+6*(e[3*t][3*n+2].x+e[3*t+1][3*n+3].x)+-2*(e[3*t][3*n].x+e[3*t+3][3*n+3].x)+3*(e[3*t+3][3*n+2].x+e[3*t+1][3*n].x)+-1*e[3*t+3][3*n].x)/9,e[3*t+2][3*n+1].x=(-4*e[3*t+3][3*n].x+6*(e[3*t+3][3*n+1].x+e[3*t+2][3*n].x)+-2*(e[3*t+3][3*n+3].x+e[3*t][3*n].x)+3*(e[3*t][3*n+1].x+e[3*t+2][3*n+3].x)+-1*e[3*t][3*n+3].x)/9,e[3*t+2][3*n+2].x=(-4*e[3*t+3][3*n+3].x+6*(e[3*t+3][3*n+2].x+e[3*t+2][3*n+3].x)+-2*(e[3*t+3][3*n].x+e[3*t][3*n+3].x)+3*(e[3*t][3*n+2].x+e[3*t+2][3*n].x)+-1*e[3*t][3*n].x)/9,e[3*t+1][3*n+1].y=(-4*e[3*t][3*n].y+6*(e[3*t][3*n+1].y+e[3*t+1][3*n].y)+-2*(e[3*t][3*n+3].y+e[3*t+3][3*n].y)+3*(e[3*t+3][3*n+1].y+e[3*t+1][3*n+3].y)+-1*e[3*t+3][3*n+3].y)/9,e[3*t+1][3*n+2].y=(-4*e[3*t][3*n+3].y+6*(e[3*t][3*n+2].y+e[3*t+1][3*n+3].y)+-2*(e[3*t][3*n].y+e[3*t+3][3*n+3].y)+3*(e[3*t+3][3*n+2].y+e[3*t+1][3*n].y)+-1*e[3*t+3][3*n].y)/9,e[3*t+2][3*n+1].y=(-4*e[3*t+3][3*n].y+6*(e[3*t+3][3*n+1].y+e[3*t+2][3*n].y)+-2*(e[3*t+3][3*n+3].y+e[3*t][3*n].y)+3*(e[3*t][3*n+1].y+e[3*t+2][3*n+3].y)+-1*e[3*t][3*n+3].y)/9,e[3*t+2][3*n+2].y=(-4*e[3*t+3][3*n+3].y+6*(e[3*t+3][3*n+2].y+e[3*t+2][3*n+3].y)+-2*(e[3*t+3][3*n].y+e[3*t][3*n+3].y)+3*(e[3*t][3*n+2].y+e[3*t+2][3*n].y)+-1*e[3*t][3*n].y)/9}}this.nodes=e,this.colors=s}paintMesh(t,e){let s=(this.nodes.length-1)/3,r=(this.nodes[0].length-1)/3;if(&quot;bilinear&quot;===this.type||s&lt;2||r&lt;2){let n;for(let o=0;o&lt;s;++o)for(let s=0;s&lt;r;++s){let r=[];for(let t=3*o,e=3*o+4;t&lt;e;++t)r.push(this.nodes[t].slice(3*s,3*s+4));let i=[];i.push(this.colors[o].slice(s,s+2)),i.push(this.colors[o+1].slice(s,s+2)),(n=new m(r,i)).paint(t,e)}}else{let n,o,a,h,l,d,u;const x=s,g=r;s++,r++;let w=new Array(s);for(let t=0;t&lt;s;++t){w[t]=new Array(r);for(let e=0;e&lt;r;++e)w[t][e]=[],w[t][e][0]=this.nodes[3*t][3*e],w[t][e][1]=this.colors[t][e]}for(let t=0;t&lt;s;++t)for(let e=0;e&lt;r;++e)0!==t&amp;&amp;t!==x&amp;&amp;(n=i(w[t-1][e][0],w[t][e][0]),o=i(w[t+1][e][0],w[t][e][0]),w[t][e][2]=c(w[t-1][e][1],w[t][e][1],w[t+1][e][1],n,o)),0!==e&amp;&amp;e!==g&amp;&amp;(n=i(w[t][e-1][0],w[t][e][0]),o=i(w[t][e+1][0],w[t][e][0]),w[t][e][3]=c(w[t][e-1][1],w[t][e][1],w[t][e+1][1],n,o));for(let t=0;t&lt;r;++t){w[0][t][2]=[],w[x][t][2]=[];for(let e=0;e&lt;4;++e)n=i(w[1][t][0],w[0][t][0]),o=i(w[x][t][0],w[x-1][t][0]),w[0][t][2][e]=n&gt;0?2*(w[1][t][1][e]-w[0][t][1][e])/n-w[1][t][2][e]:0,w[x][t][2][e]=o&gt;0?2*(w[x][t][1][e]-w[x-1][t][1][e])/o-w[x-1][t][2][e]:0}for(let t=0;t&lt;s;++t){w[t][0][3]=[],w[t][g][3]=[];for(let e=0;e&lt;4;++e)n=i(w[t][1][0],w[t][0][0]),o=i(w[t][g][0],w[t][g-1][0]),w[t][0][3][e]=n&gt;0?2*(w[t][1][1][e]-w[t][0][1][e])/n-w[t][1][3][e]:0,w[t][g][3][e]=o&gt;0?2*(w[t][g][1][e]-w[t][g-1][1][e])/o-w[t][g-1][3][e]:0}for(let s=0;s&lt;x;++s)for(let r=0;r&lt;g;++r){let n=i(w[s][r][0],w[s+1][r][0]),o=i(w[s][r+1][0],w[s+1][r+1][0]),c=i(w[s][r][0],w[s][r+1][0]),x=i(w[s+1][r][0],w[s+1][r+1][0]),g=[[],[],[],[]];for(let t=0;t&lt;4;++t){(d=[])[0]=w[s][r][1][t],d[1]=w[s+1][r][1][t],d[2]=w[s][r+1][1][t],d[3]=w[s+1][r+1][1][t],d[4]=w[s][r][2][t]*n,d[5]=w[s+1][r][2][t]*n,d[6]=w[s][r+1][2][t]*o,d[7]=w[s+1][r+1][2][t]*o,d[8]=w[s][r][3][t]*c,d[9]=w[s+1][r][3][t]*x,d[10]=w[s][r+1][3][t]*c,d[11]=w[s+1][r+1][3][t]*x,d[12]=0,d[13]=0,d[14]=0,d[15]=0,u=f(d);for(let e=0;e&lt;9;++e){g[t][e]=[];for(let s=0;s&lt;9;++s)g[t][e][s]=p(u,e/8,s/8),g[t][e][s]&gt;255?g[t][e][s]=255:g[t][e][s]&lt;0&amp;&amp;(g[t][e][s]=0)}}h=[];for(let t=3*s,e=3*s+4;t&lt;e;++t)h.push(this.nodes[t].slice(3*r,3*r+4));l=y(h);for(let s=0;s&lt;8;++s)for(let r=0;r&lt;8;++r)(a=new m(l[s][r],[[[g[0][s][r],g[1][s][r],g[2][s][r],g[3][s][r]],[g[0][s][r+1],g[1][s][r+1],g[2][s][r+1],g[3][s][r+1]]],[[g[0][s+1][r],g[1][s+1][r],g[2][s+1][r],g[3][s+1][r]],[g[0][s+1][r+1],g[1][s+1][r+1],g[2][s+1][r+1],g[3][s+1][r+1]]]])).paint(t,e)}}}transform(t){if(t instanceof x)for(let e=0,s=this.nodes.length;e&lt;s;++e)for(let s=0,r=this.nodes[0].length;s&lt;r;++s)this.nodes[e][s]=this.nodes[e][s].add(t);else if(t instanceof g)for(let e=0,s=this.nodes.length;e&lt;s;++e)for(let s=0,r=this.nodes[0].length;s&lt;r;++s)this.nodes[e][s]=this.nodes[e][s].transform(t)}scale(t){for(let e=0,s=this.nodes.length;e&lt;s;++e)for(let s=0,r=this.nodes[0].length;s&lt;r;++s)this.nodes[e][s]=this.nodes[e][s].scale(t)}}document.querySelectorAll(&quot;rect,circle,ellipse,path,text&quot;).forEach((r,n)=&gt;{let o=r.getAttribute(&quot;id&quot;);o||(o=&quot;patchjs_shape&quot;+n,r.setAttribute(&quot;id&quot;,o));const i=r.style.fill.match(/^url\(\s*&quot;?\s*#([^\s&quot;]+)&quot;?\s*\)/),a=r.style.stroke.match(/^url\(\s*&quot;?\s*#([^\s&quot;]+)&quot;?\s*\)/);if(i&amp;&amp;i[1]){const a=document.getElementById(i[1]);if(a&amp;&amp;&quot;meshgradient&quot;===a.nodeName){const i=r.getBBox();let l=document.createElementNS(s,&quot;canvas&quot;);d(l,{width:i.width,height:i.height});const c=l.getContext(&quot;2d&quot;);let u=c.createImageData(i.width,i.height);const f=new b(a);&quot;objectBoundingBox&quot;===a.getAttribute(&quot;gradientUnits&quot;)&amp;&amp;f.scale(new x(i.width,i.height));const p=a.getAttribute(&quot;gradientTransform&quot;);null!=p&amp;&amp;f.transform(h(p)),&quot;userSpaceOnUse&quot;===a.getAttribute(&quot;gradientUnits&quot;)&amp;&amp;f.transform(new x(-i.x,-i.y)),f.paintMesh(u.data,l.width),c.putImageData(u,0,0);const y=document.createElementNS(t,&quot;image&quot;);d(y,{width:i.width,height:i.height,x:i.x,y:i.y});let g=l.toDataURL();y.setAttributeNS(e,&quot;xlink:href&quot;,g),r.parentNode.insertBefore(y,r),r.style.fill=&quot;none&quot;;const w=document.createElementNS(t,&quot;use&quot;);w.setAttributeNS(e,&quot;xlink:href&quot;,&quot;#&quot;+o);const m=&quot;patchjs_clip&quot;+n,M=document.createElementNS(t,&quot;clipPath&quot;);M.setAttribute(&quot;id&quot;,m),M.appendChild(w),r.parentElement.insertBefore(M,r),y.setAttribute(&quot;clip-path&quot;,&quot;url(#&quot;+m+&quot;)&quot;),u=null,l=null,g=null}}if(a&amp;&amp;a[1]){const o=document.getElementById(a[1]);if(o&amp;&amp;&quot;meshgradient&quot;===o.nodeName){const i=parseFloat(r.style.strokeWidth.slice(0,-2))*(parseFloat(r.style.strokeMiterlimit)||parseFloat(r.getAttribute(&quot;stroke-miterlimit&quot;))||1),a=r.getBBox(),l=Math.trunc(a.width+i),c=Math.trunc(a.height+i),u=Math.trunc(a.x-i/2),f=Math.trunc(a.y-i/2);let p=document.createElementNS(s,&quot;canvas&quot;);d(p,{width:l,height:c});const y=p.getContext(&quot;2d&quot;);let g=y.createImageData(l,c);const w=new b(o);&quot;objectBoundingBox&quot;===o.getAttribute(&quot;gradientUnits&quot;)&amp;&amp;w.scale(new x(l,c));const m=o.getAttribute(&quot;gradientTransform&quot;);null!=m&amp;&amp;w.transform(h(m)),&quot;userSpaceOnUse&quot;===o.getAttribute(&quot;gradientUnits&quot;)&amp;&amp;w.transform(new x(-u,-f)),w.paintMesh(g.data,p.width),y.putImageData(g,0,0);const M=document.createElementNS(t,&quot;image&quot;);d(M,{width:l,height:c,x:0,y:0});let S=p.toDataURL();M.setAttributeNS(e,&quot;xlink:href&quot;,S);const k=&quot;pattern_clip&quot;+n,A=document.createElementNS(t,&quot;pattern&quot;);d(A,{id:k,patternUnits:&quot;userSpaceOnUse&quot;,width:l,height:c,x:u,y:f}),A.appendChild(M),o.parentNode.appendChild(A),r.style.stroke=&quot;url(#&quot;+k+&quot;)&quot;,g=null,p=null,S=null}}})}();
</script>
  </g>
</svg>
