<?xml version="1.0" encoding="UTF-8" standalone="no"?>
<!-- Created with Inkscape (http://www.inkscape.org/) -->

<svg
   width="400mm"
   height="200mm"
   viewBox="0 0 400 200"
   version="1.1"
   id="svg1"
   xmlns="http://www.w3.org/2000/svg"
   xmlns:svg="http://www.w3.org/2000/svg">
  <defs
     id="defs1" />
  <g
     id="layer1">
    <path
       id="path3"
       style="fill:#000000;fill-opacity:1;stroke:none;stroke-width:0.837514"
       d="m 113.03169,83.118597 c -0.53154,1.94347 -1.42516,3.84363 -2.14178,5.7275 -1.59116,4.182809 -3.2019,8.360009 -4.76539,12.551733 -1.48712,3.98696 -2.9671,7.98193 -4.52307,11.94242 -1.45765,3.71022 -2.929631,7.4498 -4.248032,11.21126 -0.38426,1.09631 -1.587461,2.95894 -1.439854,4.12524 0.0722,0.57022 1.126424,0.38364 1.519871,0.38364 h 4.143275 c 0.40949,0 1.14289,0.1398 1.45191,-0.19539 0.63001,-0.6834 0.9216,-2.22481 1.25246,-3.09487 0.95435,-2.50964 1.86482,-5.03488 2.78588,-7.55541 2.92196,-7.99612 6.09321,-15.87749 9.30332,-23.762994 1.05576,-2.593429 2.05601,-5.209449 3.12139,-7.799139 0.28529,-0.6935 1.26742,-2.14995 1.01053,-2.90661 -0.20818,-0.61316 -1.37455,-0.36096 -1.86488,-0.39456 -1.86802,-0.12795 -3.7295,-0.23282 -5.60563,-0.23282 m -22.036215,1.43808 c -0.558526,0.18207 -1.079365,0.96105 -1.483025,1.36473 -1.077598,1.07768 -2.21294,2.09116 -3.290256,3.16841 -3.718093,3.717859 -7.61388,7.255709 -11.333127,10.967543 -0.979685,0.97773 -2.001095,1.94768 -3.046538,2.85453 -0.699325,0.60661 -1.484878,1.23341 -1.298537,2.26365 0.300417,1.66091 2.834518,3.15044 3.97949,4.26693 3.896342,3.7994 7.906948,7.53737 11.942423,11.18879 1.196362,1.08251 2.36471,2.19423 3.533988,3.30606 0.388125,0.36906 0.991557,0.98751 1.584199,0.72731 1.200762,-0.52719 2.370184,-2.23329 3.290169,-3.15965 0.299696,-0.30179 0.865926,-0.72886 0.761546,-1.21861 -0.24089,-1.13011 -2.374668,-2.51184 -3.198679,-3.27936 -2.965019,-2.76177 -5.992868,-5.46846 -8.895894,-8.2957 -0.949095,-0.92432 -1.942671,-1.81408 -2.924671,-2.70343 -0.293659,-0.26594 -0.9497,-0.73387 -0.827834,-1.19793 0.110362,-0.42028 0.654779,-0.80312 0.949694,-1.09666 0.875828,-0.87171 1.805852,-1.68414 2.680952,-2.55918 2.863572,-2.863384 5.910224,-5.544664 8.774027,-8.408454 0.976511,-0.976499 2.711722,-2.040819 3.321015,-3.290259 0.24865,-0.50991 -0.327708,-1.00793 -0.644859,-1.34048 -0.879427,-0.92211 -1.766991,-1.84352 -2.606012,-2.80272 -0.29948,-0.34237 -0.739125,-0.92794 -1.268071,-0.75552 m 34.222365,0.38628 c -1.18078,0.236 -2.58926,2.57093 -3.41212,3.41569 -0.29303,0.30081 -0.85417,0.73409 -0.69995,1.21861 0.16412,0.51568 0.80598,0.89421 1.18739,1.23931 0.78838,0.71334 1.52641,1.479639 2.31537,2.193509 2.89717,2.62144 5.63275,5.42105 8.5303,8.042854 0.99153,0.89717 1.98048,1.83556 2.92468,2.78213 0.26253,0.2632 0.81977,0.66408 0.70596,1.09675 -0.12177,0.46296 -0.73335,0.83327 -1.07155,1.13155 -0.85356,0.75285 -1.63076,1.59976 -2.43723,2.40234 -2.8697,2.85587 -5.91043,5.54605 -8.77403,8.40854 -0.90131,0.90098 -2.79526,2.1175 -3.27972,3.29026 -0.22367,0.54144 0.38714,1.00457 0.72074,1.34048 0.88916,0.89533 1.77285,1.79945 2.68038,2.67615 0.28997,0.28011 0.76572,0.89454 1.22389,0.83686 0.5195,-0.0654 0.99135,-0.73159 1.33567,-1.07578 0.99712,-0.99674 2.05044,-1.92896 3.04654,-2.92468 3.75948,-3.75803 7.57501,-7.48286 11.45977,-11.11054 1.19538,-1.11628 4.20324,-3.18004 3.99407,-4.97518 -0.16916,-1.45182 -1.68625,-2.36548 -2.65839,-3.29506 -2.48864,-2.379674 -4.99918,-4.750664 -7.43355,-7.185024 -2.48995,-2.48997 -5.03667,-5.017449 -7.67728,-7.346489 -0.58095,-0.51241 -1.81905,-2.33454 -2.68094,-2.16228" />
    <path
       id="path1"
       style="fill:#000000;fill-opacity:1;stroke:none;stroke-width:0.837514"
       d="m 45.276722,103.26074 c 6.221016,-0.73439 7.472611,9.49762 1.096753,10.18023 -6.426573,0.68803 -7.633634,-9.40857 -1.096753,-10.18023 M 96.092634,27.125509 c -0.459267,0.09574 -0.911205,0.29131 -1.340471,0.476438 -2.274687,0.981006 -2.30558,2.696171 -1.81344,4.822276 0.62313,2.691961 2.103263,5.203361 1.834127,8.042858 -0.116385,1.227972 -0.110903,2.328965 -0.456783,3.533984 -0.128964,0.449274 -0.250859,1.092647 -0.787869,1.213437 -0.540832,0.121654 -1.216161,-0.263314 -1.700705,-0.457917 -2.144426,-0.861242 -3.282935,-2.849197 -4.560599,-4.655088 -2.167456,-3.063571 -4.58215,-8.194725 -9.209756,-7.377039 -0.90809,0.160464 -1.846511,0.465192 -2.680952,0.85614 -0.92437,0.433076 -1.963891,0.955688 -2.784765,1.564058 -0.535871,0.397151 -0.395027,1.099683 -0.242399,1.666581 0.393412,1.461281 1.301921,2.528848 2.262895,3.655844 2.772259,3.251197 9.756539,9.212979 4.785701,13.251128 -2.528208,2.053825 -4.984224,0.906093 -7.067875,-1.18684 -2.728348,-2.7405 -4.279729,-6.355407 -7.433646,-8.697299 -1.825804,-1.355724 -4.181995,-2.01128 -6.214466,-0.613547 -2.600535,1.788383 -1.578431,4.201886 -0.01279,6.264309 2.4559,3.235161 6.948823,5.513965 6.383811,10.114504 -0.07596,0.618872 -0.018,1.512424 -0.392751,2.043337 -0.357267,0.506114 -1.200057,0.300235 -1.713587,0.190512 -1.64803,-0.352136 -3.155204,-1.186943 -4.63074,-1.959006 -4.455766,-2.331449 -9.993814,-5.217359 -13.974016,-0.396704 -1.078356,1.306053 -1.289602,3.206435 0.204137,4.290917 2.061499,1.496686 4.983013,1.385011 5.674833,4.361246 1.007745,4.335367 -2.969802,7.414332 -3.446818,11.454979 -0.272561,2.30877 1.602183,4.54583 0.970755,6.82424 -0.176792,0.63793 -0.512785,1.17734 -0.902866,1.70606 -3.81574,5.171909 -9.596973,-2.98895 -13.618493,1.10203 -3.184557,3.239559 -0.359354,8.730019 0.490175,12.424613 0.683609,2.973 -0.902169,5.29817 -1.099576,8.16471 -0.157947,2.29357 1.291905,3.98502 1.886691,6.09308 0.792851,2.81004 -0.05098,6.55897 2.042027,8.8845 0.995384,1.10597 2.642748,1.08654 3.859511,0.39249 2.2607,-1.28951 3.952122,-3.52802 5.971213,-5.15749 1.336198,-1.07835 2.830484,-2.28167 4.202058,-0.58373 1.812648,2.24395 0.768763,4.1516 -1.399243,5.5618 -2.817947,1.83297 -9.241533,2.69872 -9.137826,6.86628 0.03759,1.51048 0.99224,2.6895 1.932106,3.7778 1.92119,2.22462 4.294543,3.6981 6.596412,5.46995 5.29829,4.0783 8.859225,10.05826 7.363406,16.83061 -0.356619,1.61461 -0.982955,3.07312 -1.513678,4.63074 -0.153804,0.4514 -0.627947,1.31862 -0.357686,1.77987 0.258302,0.44083 1.008813,0.44744 1.454063,0.5007 3.997774,0.47838 6.896068,-2.81511 8.895896,-5.81455 3.512264,-5.26789 4.371597,-11.71075 2.628854,-17.79178 -1.263782,-4.4098 -3.806096,-8.8092 -3.806096,-13.52662 0,-4.98932 2.516543,-9.62481 2.394065,-14.62338 -0.04087,-1.66951 -0.946775,-5.10982 -2.922888,-5.50653 -0.638473,-0.12817 -1.414169,0.61899 -2.071647,0.71246 -1.638753,0.23298 -3.442874,-1.30652 -4.167647,-2.63949 -0.733311,-1.34868 0.03608,-2.45567 1.242971,-3.16614 1.87905,-1.10615 4.656345,-1.39578 4.49571,-4.267404 -0.138184,-2.47029 -3.311867,-4.52874 -4.80958,-6.21673 -0.716896,-0.807969 -1.62671,-1.737749 -1.427737,-2.922889 0.382789,-2.27999 2.776689,-5.19596 5.153728,-5.50849 1.503482,-0.19769 3.027639,0.61267 4.508883,0.33332 1.070652,-0.20191 1.931306,-1.03902 2.677943,-1.78194 1.978879,-1.96907 3.392402,-4.49768 5.26374,-6.569515 3.193799,-3.535993 7.112522,-6.900749 10.946842,-9.729923 6.276321,-4.631005 14.59204,-6.260799 22.178764,-6.985794 3.74378,-0.35776 8.15741,-0.529753 11.82057,0.513032 6.04074,1.719597 12.4208,3.95318 17.54806,7.69175 6.04984,4.411274 10.17741,10.066232 13.6861,16.55379 6.07621,11.234909 9.94972,23.796353 6.31018,36.436593 -0.67266,2.33616 -2.39113,5.65699 -4.39801,7.09373 -1.74,1.24566 -4.22254,1.45969 -5.24984,3.63008 -0.40157,0.8484 -0.13181,1.68528 -0.006,2.55909 0.19962,1.38851 0.44009,2.86044 0.37677,4.26515 -0.10104,2.24161 -2.10955,4.75186 -3.54988,6.33672 -3.45214,3.79847 -8.7699,5.40635 -12.65291,8.68837 -1.16403,0.98386 -2.07733,2.05143 -3.00403,3.25414 -0.63565,0.82497 -1.23261,1.7957 -2.23601,2.20197 -1.80828,0.73217 -3.75169,-0.24279 -5.60563,0.16096 -0.90297,0.19666 -1.73325,0.97151 -2.55909,1.38468 -2.618,1.30985 -5.12966,2.80429 -7.67727,4.24354 -1.05665,0.59695 -2.85732,1.01998 -3.70418,1.86043 -0.52937,0.52539 0.14089,1.5329 0.49685,1.95761 1.02618,1.22437 3.01427,1.72277 4.54781,1.8284 2.97461,0.20484 5.9283,-0.47014 8.77402,-1.22182 1.50747,-0.39819 3.08866,-0.75125 4.38702,-1.66572 1.64408,-1.15798 2.39747,-3.46118 4.26515,-4.26582 2.20654,-0.95062 4.37046,0.99894 6.70237,0.20544 2.89284,-0.98434 5.55853,-3.38781 8.04287,-5.10237 4.39217,-3.03122 9.41733,-5.48015 12.77289,-9.75202 1.7061,-2.172 -1.14381,-5.42696 0.58909,-7.66448 1.02735,-1.32653 3.1276,-0.71076 4.55165,-0.74574 1.57836,-0.0388 3.25238,-0.86985 4.36633,-1.96916 3.26861,-3.22564 5.89603,-7.49739 7.15843,-11.92128 0.90958,-3.18751 1.11812,-6.62895 1.95674,-9.87078 0.69518,-2.68736 2.82627,-5.14518 2.45979,-8.04285 -0.13097,-1.03564 -1.00474,-1.5165 -1.68302,-2.19397 -0.87258,-0.87159 -1.66836,-1.95373 -1.97941,-3.16795 -1.11122,-4.337774 4.27945,-8.526254 0.94923,-12.673113 -2.10366,-2.61953 -5.09673,-3.38772 -8.1099,-4.53276 -1.6626,-0.63182 -3.49041,-1.92988 -3.64446,-3.87615 -0.3804,-4.8059 6.02646,-3.32518 8.76264,-2.94057 0.57252,0.0805 1.8784,0.54755 2.39859,0.33238 0.68762,-0.28442 0.28449,-2.088459 0.21222,-2.631859 -0.33007,-2.482263 -0.49788,-5.257465 -1.89065,-7.433554 -1.70659,-2.666405 -4.51975,-3.717416 -7.5444,-2.798023 -1.42387,0.432808 -2.6244,1.463003 -4.02143,1.865437 -1.70137,0.490106 -4.13519,-1.04405 -4.88433,-2.479536 -0.65271,-1.250674 0.007,-2.781513 0.81644,-3.777706 1.67132,-2.059151 5.01058,-2.951006 5.79972,-5.727491 0.91694,-3.226161 -3.18053,-4.693215 -3.93502,-7.433552 -0.31265,-1.135578 -0.18052,-2.25515 -0.10128,-3.412121 0.0338,-0.49402 0.26409,-1.107434 -0.27268,-1.409961 -1.66233,-0.936928 -3.82671,0.02061 -5.58757,-0.05717 -1.31293,-0.05798 -2.37965,-0.893657 -3.41213,-1.631504 -0.4961,-0.354532 -1.88422,-1.799748 -2.52383,-1.440992 -0.91302,0.512095 -1.64408,2.016725 -2.28049,2.833563 -1.31682,1.690128 -2.83283,3.306757 -4.57901,4.560122 -1.03012,0.739395 -2.38917,1.754808 -3.65585,1.057079 -1.90845,-1.051234 -1.89677,-3.356933 -1.63581,-5.251617 0.39144,-2.842012 0.90071,-6.291545 -0.24871,-9.017751 -0.95158,-2.25701 -3.29027,-3.674587 -5.54902,-4.335291 -2.99449,-0.875924 -6.06795,-1.416357 -9.13961,-1.932676 -2.79865,-0.470428 -5.5415,-1.052172 -8.40845,-0.779307 -0.37407,0.0356 -1.19734,-0.0059 -1.3888,0.383629 -0.3941,0.801842 0.0651,2.730414 0.14951,3.617108 0.24825,2.608538 0.25309,5.309826 0.13775,7.920997 -0.0586,1.326524 -0.71579,3.823181 -2.43244,3.632802 -1.67742,-0.18602 -2.64764,-1.858387 -3.21663,-3.267217 -1.34335,-3.326719 -1.07875,-6.892209 -3.31815,-9.870779 -0.953877,-1.268731 -2.811495,-2.859208 -4.554356,-2.495899 m 25.712746,62.208019 -0.12186,0.12187 0.12186,-0.12187" />
    <script
       id="mesh_polyfill"
       type="text/javascript">
!function(){const t=&quot;http://www.w3.org/2000/svg&quot;,e=&quot;http://www.w3.org/1999/xlink&quot;,s=&quot;http://www.w3.org/1999/xhtml&quot;,r=2;if(document.createElementNS(t,&quot;meshgradient&quot;).x)return;const n=(t,e,s,r)=&gt;{let n=new x(.5*(e.x+s.x),.5*(e.y+s.y)),o=new x(.5*(t.x+e.x),.5*(t.y+e.y)),i=new x(.5*(s.x+r.x),.5*(s.y+r.y)),a=new x(.5*(n.x+o.x),.5*(n.y+o.y)),h=new x(.5*(n.x+i.x),.5*(n.y+i.y)),l=new x(.5*(a.x+h.x),.5*(a.y+h.y));return[[t,o,a,l],[l,h,i,r]]},o=t=&gt;{let e=t[0].distSquared(t[1]),s=t[2].distSquared(t[3]),r=.25*t[0].distSquared(t[2]),n=.25*t[1].distSquared(t[3]),o=e&gt;s?e:s,i=r&gt;n?r:n;return 18*(o&gt;i?o:i)},i=(t,e)=&gt;Math.sqrt(t.distSquared(e)),a=(t,e)=&gt;t.scale(2/3).add(e.scale(1/3)),h=t=&gt;{let e,s,r,n,o,i,a,h=new g;return t.match(/(\w+\(\s*[^)]+\))+/g).forEach(t=&gt;{let l=t.match(/[\w.-]+/g),d=l.shift();switch(d){case&quot;translate&quot;:2===l.length?e=new g(1,0,0,1,l[0],l[1]):(console.error(&quot;mesh.js: translate does not have 2 arguments!&quot;),e=new g(1,0,0,1,0,0)),h=h.append(e);break;case&quot;scale&quot;:1===l.length?s=new g(l[0],0,0,l[0],0,0):2===l.length?s=new g(l[0],0,0,l[1],0,0):(console.error(&quot;mesh.js: scale does not have 1 or 2 arguments!&quot;),s=new g(1,0,0,1,0,0)),h=h.append(s);break;case&quot;rotate&quot;:if(3===l.length&amp;&amp;(e=new g(1,0,0,1,l[1],l[2]),h=h.append(e)),l[0]){r=l[0]*Math.PI/180;let t=Math.cos(r),e=Math.sin(r);Math.abs(t)&lt;1e-16&amp;&amp;(t=0),Math.abs(e)&lt;1e-16&amp;&amp;(e=0),a=new g(t,e,-e,t,0,0),h=h.append(a)}else console.error(&quot;math.js: No argument to rotate transform!&quot;);3===l.length&amp;&amp;(e=new g(1,0,0,1,-l[1],-l[2]),h=h.append(e));break;case&quot;skewX&quot;:l[0]?(r=l[0]*Math.PI/180,n=Math.tan(r),o=new g(1,0,n,1,0,0),h=h.append(o)):console.error(&quot;math.js: No argument to skewX transform!&quot;);break;case&quot;skewY&quot;:l[0]?(r=l[0]*Math.PI/180,n=Math.tan(r),i=new g(1,n,0,1,0,0),h=h.append(i)):console.error(&quot;math.js: No argument to skewY transform!&quot;);break;case&quot;matrix&quot;:6===l.length?h=h.append(new g(...l)):console.error(&quot;math.js: Incorrect number of arguments for matrix!&quot;);break;default:console.error(&quot;mesh.js: Unhandled transform type: &quot;+d)}}),h},l=t=&gt;{let e=[],s=t.split(/[ ,]+/);for(let t=0,r=s.length-1;t&lt;r;t+=2)e.push(new x(parseFloat(s[t]),parseFloat(s[t+1])));return e},d=(t,e)=&gt;{for(let s in e)t.setAttribute(s,e[s])},c=(t,e,s,r,n)=&gt;{let o,i,a=[0,0,0,0];for(let h=0;h&lt;3;++h)e[h]&lt;t[h]&amp;&amp;e[h]&lt;s[h]||t[h]&lt;e[h]&amp;&amp;s[h]&lt;e[h]?a[h]=0:(a[h]=.5*((e[h]-t[h])/r+(s[h]-e[h])/n),o=Math.abs(3*(e[h]-t[h])/r),i=Math.abs(3*(s[h]-e[h])/n),a[h]&gt;o?a[h]=o:a[h]&gt;i&amp;&amp;(a[h]=i));return a},u=[[1,0,0,0,0,0,0,0,0,0,0,0,0,0,0,0],[0,0,0,0,1,0,0,0,0,0,0,0,0,0,0,0],[-3,3,0,0,-2,-1,0,0,0,0,0,0,0,0,0,0],[2,-2,0,0,1,1,0,0,0,0,0,0,0,0,0,0],[0,0,0,0,0,0,0,0,1,0,0,0,0,0,0,0],[0,0,0,0,0,0,0,0,0,0,0,0,1,0,0,0],[0,0,0,0,0,0,0,0,-3,3,0,0,-2,-1,0,0],[0,0,0,0,0,0,0,0,2,-2,0,0,1,1,0,0],[-3,0,3,0,0,0,0,0,-2,0,-1,0,0,0,0,0],[0,0,0,0,-3,0,3,0,0,0,0,0,-2,0,-1,0],[9,-9,-9,9,6,3,-6,-3,6,-6,3,-3,4,2,2,1],[-6,6,6,-6,-3,-3,3,3,-4,4,-2,2,-2,-2,-1,-1],[2,0,-2,0,0,0,0,0,1,0,1,0,0,0,0,0],[0,0,0,0,2,0,-2,0,0,0,0,0,1,0,1,0],[-6,6,6,-6,-4,-2,4,2,-3,3,-3,3,-2,-1,-2,-1],[4,-4,-4,4,2,2,-2,-2,2,-2,2,-2,1,1,1,1]],f=t=&gt;{let e=[];for(let s=0;s&lt;16;++s){e[s]=0;for(let r=0;r&lt;16;++r)e[s]+=u[s][r]*t[r]}return e},p=(t,e,s)=&gt;{const r=e*e,n=s*s,o=e*e*e,i=s*s*s;return t[0]+t[1]*e+t[2]*r+t[3]*o+t[4]*s+t[5]*s*e+t[6]*s*r+t[7]*s*o+t[8]*n+t[9]*n*e+t[10]*n*r+t[11]*n*o+t[12]*i+t[13]*i*e+t[14]*i*r+t[15]*i*o},y=t=&gt;{let e=[],s=[],r=[];for(let s=0;s&lt;4;++s)e[s]=[],e[s][0]=n(t[0][s],t[1][s],t[2][s],t[3][s]),e[s][1]=[],e[s][1].push(...n(...e[s][0][0])),e[s][1].push(...n(...e[s][0][1])),e[s][2]=[],e[s][2].push(...n(...e[s][1][0])),e[s][2].push(...n(...e[s][1][1])),e[s][2].push(...n(...e[s][1][2])),e[s][2].push(...n(...e[s][1][3]));for(let t=0;t&lt;8;++t){s[t]=[];for(let r=0;r&lt;4;++r)s[t][r]=[],s[t][r][0]=n(e[0][2][t][r],e[1][2][t][r],e[2][2][t][r],e[3][2][t][r]),s[t][r][1]=[],s[t][r][1].push(...n(...s[t][r][0][0])),s[t][r][1].push(...n(...s[t][r][0][1])),s[t][r][2]=[],s[t][r][2].push(...n(...s[t][r][1][0])),s[t][r][2].push(...n(...s[t][r][1][1])),s[t][r][2].push(...n(...s[t][r][1][2])),s[t][r][2].push(...n(...s[t][r][1][3]))}for(let t=0;t&lt;8;++t){r[t]=[];for(let e=0;e&lt;8;++e)r[t][e]=[],r[t][e][0]=s[t][0][2][e],r[t][e][1]=s[t][1][2][e],r[t][e][2]=s[t][2][2][e],r[t][e][3]=s[t][3][2][e]}return r};class x{constructor(t,e){this.x=t||0,this.y=e||0}toString(){return`(x=${this.x}, y=${this.y})`}clone(){return new x(this.x,this.y)}add(t){return new x(this.x+t.x,this.y+t.y)}scale(t){return void 0===t.x?new x(this.x*t,this.y*t):new x(this.x*t.x,this.y*t.y)}distSquared(t){let e=this.x-t.x,s=this.y-t.y;return e*e+s*s}transform(t){let e=this.x*t.a+this.y*t.c+t.e,s=this.x*t.b+this.y*t.d+t.f;return new x(e,s)}}class g{constructor(t,e,s,r,n,o){void 0===t?(this.a=1,this.b=0,this.c=0,this.d=1,this.e=0,this.f=0):(this.a=t,this.b=e,this.c=s,this.d=r,this.e=n,this.f=o)}toString(){return`affine: ${this.a} ${this.c} ${this.e} \n       ${this.b} ${this.d} ${this.f}`}append(t){t instanceof g||console.error(&quot;mesh.js: argument to Affine.append is not affine!&quot;);let e=this.a*t.a+this.c*t.b,s=this.b*t.a+this.d*t.b,r=this.a*t.c+this.c*t.d,n=this.b*t.c+this.d*t.d,o=this.a*t.e+this.c*t.f+this.e,i=this.b*t.e+this.d*t.f+this.f;return new g(e,s,r,n,o,i)}}class w{constructor(t,e){this.nodes=t,this.colors=e}paintCurve(t,e){if(o(this.nodes)&gt;r){const s=n(...this.nodes);let r=[[],[]],o=[[],[]];for(let t=0;t&lt;4;++t)r[0][t]=this.colors[0][t],r[1][t]=(this.colors[0][t]+this.colors[1][t])/2,o[0][t]=r[1][t],o[1][t]=this.colors[1][t];let i=new w(s[0],r),a=new w(s[1],o);i.paintCurve(t,e),a.paintCurve(t,e)}else{let s=Math.round(this.nodes[0].x);if(s&gt;=0&amp;&amp;s&lt;e){let r=4*(~~this.nodes[0].y*e+s);t[r]=Math.round(this.colors[0][0]),t[r+1]=Math.round(this.colors[0][1]),t[r+2]=Math.round(this.colors[0][2]),t[r+3]=Math.round(this.colors[0][3])}}}}class m{constructor(t,e){this.nodes=t,this.colors=e}split(){let t=[[],[],[],[]],e=[[],[],[],[]],s=[[[],[]],[[],[]]],r=[[[],[]],[[],[]]];for(let s=0;s&lt;4;++s){const r=n(this.nodes[0][s],this.nodes[1][s],this.nodes[2][s],this.nodes[3][s]);t[0][s]=r[0][0],t[1][s]=r[0][1],t[2][s]=r[0][2],t[3][s]=r[0][3],e[0][s]=r[1][0],e[1][s]=r[1][1],e[2][s]=r[1][2],e[3][s]=r[1][3]}for(let t=0;t&lt;4;++t)s[0][0][t]=this.colors[0][0][t],s[0][1][t]=this.colors[0][1][t],s[1][0][t]=(this.colors[0][0][t]+this.colors[1][0][t])/2,s[1][1][t]=(this.colors[0][1][t]+this.colors[1][1][t])/2,r[0][0][t]=s[1][0][t],r[0][1][t]=s[1][1][t],r[1][0][t]=this.colors[1][0][t],r[1][1][t]=this.colors[1][1][t];return[new m(t,s),new m(e,r)]}paint(t,e){let s,n=!1;for(let t=0;t&lt;4;++t)if((s=o([this.nodes[0][t],this.nodes[1][t],this.nodes[2][t],this.nodes[3][t]]))&gt;r){n=!0;break}if(n){let s=this.split();s[0].paint(t,e),s[1].paint(t,e)}else{new w([...this.nodes[0]],[...this.colors[0]]).paintCurve(t,e)}}}class b{constructor(t){this.readMesh(t),this.type=t.getAttribute(&quot;type&quot;)||&quot;bilinear&quot;}readMesh(t){let e=[[]],s=[[]],r=Number(t.getAttribute(&quot;x&quot;)),n=Number(t.getAttribute(&quot;y&quot;));e[0][0]=new x(r,n);let o=t.children;for(let t=0,r=o.length;t&lt;r;++t){e[3*t+1]=[],e[3*t+2]=[],e[3*t+3]=[],s[t+1]=[];let r=o[t].children;for(let n=0,o=r.length;n&lt;o;++n){let o=r[n].children;for(let r=0,i=o.length;r&lt;i;++r){let i=r;0!==t&amp;&amp;++i;let h,d=o[r].getAttribute(&quot;path&quot;),c=&quot;l&quot;;null!=d&amp;&amp;(c=(h=d.match(/\s*([lLcC])\s*(.*)/))[1]);let u=l(h[2]);switch(c){case&quot;l&quot;:0===i?(e[3*t][3*n+3]=u[0].add(e[3*t][3*n]),e[3*t][3*n+1]=a(e[3*t][3*n],e[3*t][3*n+3]),e[3*t][3*n+2]=a(e[3*t][3*n+3],e[3*t][3*n])):1===i?(e[3*t+3][3*n+3]=u[0].add(e[3*t][3*n+3]),e[3*t+1][3*n+3]=a(e[3*t][3*n+3],e[3*t+3][3*n+3]),e[3*t+2][3*n+3]=a(e[3*t+3][3*n+3],e[3*t][3*n+3])):2===i?(0===n&amp;&amp;(e[3*t+3][3*n+0]=u[0].add(e[3*t+3][3*n+3])),e[3*t+3][3*n+1]=a(e[3*t+3][3*n],e[3*t+3][3*n+3]),e[3*t+3][3*n+2]=a(e[3*t+3][3*n+3],e[3*t+3][3*n])):(e[3*t+1][3*n]=a(e[3*t][3*n],e[3*t+3][3*n]),e[3*t+2][3*n]=a(e[3*t+3][3*n],e[3*t][3*n]));break;case&quot;L&quot;:0===i?(e[3*t][3*n+3]=u[0],e[3*t][3*n+1]=a(e[3*t][3*n],e[3*t][3*n+3]),e[3*t][3*n+2]=a(e[3*t][3*n+3],e[3*t][3*n])):1===i?(e[3*t+3][3*n+3]=u[0],e[3*t+1][3*n+3]=a(e[3*t][3*n+3],e[3*t+3][3*n+3]),e[3*t+2][3*n+3]=a(e[3*t+3][3*n+3],e[3*t][3*n+3])):2===i?(0===n&amp;&amp;(e[3*t+3][3*n+0]=u[0]),e[3*t+3][3*n+1]=a(e[3*t+3][3*n],e[3*t+3][3*n+3]),e[3*t+3][3*n+2]=a(e[3*t+3][3*n+3],e[3*t+3][3*n])):(e[3*t+1][3*n]=a(e[3*t][3*n],e[3*t+3][3*n]),e[3*t+2][3*n]=a(e[3*t+3][3*n],e[3*t][3*n]));break;case&quot;c&quot;:0===i?(e[3*t][3*n+1]=u[0].add(e[3*t][3*n]),e[3*t][3*n+2]=u[1].add(e[3*t][3*n]),e[3*t][3*n+3]=u[2].add(e[3*t][3*n])):1===i?(e[3*t+1][3*n+3]=u[0].add(e[3*t][3*n+3]),e[3*t+2][3*n+3]=u[1].add(e[3*t][3*n+3]),e[3*t+3][3*n+3]=u[2].add(e[3*t][3*n+3])):2===i?(e[3*t+3][3*n+2]=u[0].add(e[3*t+3][3*n+3]),e[3*t+3][3*n+1]=u[1].add(e[3*t+3][3*n+3]),0===n&amp;&amp;(e[3*t+3][3*n+0]=u[2].add(e[3*t+3][3*n+3]))):(e[3*t+2][3*n]=u[0].add(e[3*t+3][3*n]),e[3*t+1][3*n]=u[1].add(e[3*t+3][3*n]));break;case&quot;C&quot;:0===i?(e[3*t][3*n+1]=u[0],e[3*t][3*n+2]=u[1],e[3*t][3*n+3]=u[2]):1===i?(e[3*t+1][3*n+3]=u[0],e[3*t+2][3*n+3]=u[1],e[3*t+3][3*n+3]=u[2]):2===i?(e[3*t+3][3*n+2]=u[0],e[3*t+3][3*n+1]=u[1],0===n&amp;&amp;(e[3*t+3][3*n+0]=u[2])):(e[3*t+2][3*n]=u[0],e[3*t+1][3*n]=u[1]);break;default:console.error(&quot;mesh.js: &quot;+c+&quot; invalid path type.&quot;)}if(0===t&amp;&amp;0===n||r&gt;0){let e=window.getComputedStyle(o[r]).stopColor.match(/^rgb\s*\(\s*(\d+)\s*,\s*(\d+)\s*,\s*(\d+)\s*\)$/i),a=window.getComputedStyle(o[r]).stopOpacity,h=255;a&amp;&amp;(h=Math.floor(255*a)),e&amp;&amp;(0===i?(s[t][n]=[],s[t][n][0]=Math.floor(e[1]),s[t][n][1]=Math.floor(e[2]),s[t][n][2]=Math.floor(e[3]),s[t][n][3]=h):1===i?(s[t][n+1]=[],s[t][n+1][0]=Math.floor(e[1]),s[t][n+1][1]=Math.floor(e[2]),s[t][n+1][2]=Math.floor(e[3]),s[t][n+1][3]=h):2===i?(s[t+1][n+1]=[],s[t+1][n+1][0]=Math.floor(e[1]),s[t+1][n+1][1]=Math.floor(e[2]),s[t+1][n+1][2]=Math.floor(e[3]),s[t+1][n+1][3]=h):3===i&amp;&amp;(s[t+1][n]=[],s[t+1][n][0]=Math.floor(e[1]),s[t+1][n][1]=Math.floor(e[2]),s[t+1][n][2]=Math.floor(e[3]),s[t+1][n][3]=h))}}e[3*t+1][3*n+1]=new x,e[3*t+1][3*n+2]=new x,e[3*t+2][3*n+1]=new x,e[3*t+2][3*n+2]=new x,e[3*t+1][3*n+1].x=(-4*e[3*t][3*n].x+6*(e[3*t][3*n+1].x+e[3*t+1][3*n].x)+-2*(e[3*t][3*n+3].x+e[3*t+3][3*n].x)+3*(e[3*t+3][3*n+1].x+e[3*t+1][3*n+3].x)+-1*e[3*t+3][3*n+3].x)/9,e[3*t+1][3*n+2].x=(-4*e[3*t][3*n+3].x+6*(e[3*t][3*n+2].x+e[3*t+1][3*n+3].x)+-2*(e[3*t][3*n].x+e[3*t+3][3*n+3].x)+3*(e[3*t+3][3*n+2].x+e[3*t+1][3*n].x)+-1*e[3*t+3][3*n].x)/9,e[3*t+2][3*n+1].x=(-4*e[3*t+3][3*n].x+6*(e[3*t+3][3*n+1].x+e[3*t+2][3*n].x)+-2*(e[3*t+3][3*n+3].x+e[3*t][3*n].x)+3*(e[3*t][3*n+1].x+e[3*t+2][3*n+3].x)+-1*e[3*t][3*n+3].x)/9,e[3*t+2][3*n+2].x=(-4*e[3*t+3][3*n+3].x+6*(e[3*t+3][3*n+2].x+e[3*t+2][3*n+3].x)+-2*(e[3*t+3][3*n].x+e[3*t][3*n+3].x)+3*(e[3*t][3*n+2].x+e[3*t+2][3*n].x)+-1*e[3*t][3*n].x)/9,e[3*t+1][3*n+1].y=(-4*e[3*t][3*n].y+6*(e[3*t][3*n+1].y+e[3*t+1][3*n].y)+-2*(e[3*t][3*n+3].y+e[3*t+3][3*n].y)+3*(e[3*t+3][3*n+1].y+e[3*t+1][3*n+3].y)+-1*e[3*t+3][3*n+3].y)/9,e[3*t+1][3*n+2].y=(-4*e[3*t][3*n+3].y+6*(e[3*t][3*n+2].y+e[3*t+1][3*n+3].y)+-2*(e[3*t][3*n].y+e[3*t+3][3*n+3].y)+3*(e[3*t+3][3*n+2].y+e[3*t+1][3*n].y)+-1*e[3*t+3][3*n].y)/9,e[3*t+2][3*n+1].y=(-4*e[3*t+3][3*n].y+6*(e[3*t+3][3*n+1].y+e[3*t+2][3*n].y)+-2*(e[3*t+3][3*n+3].y+e[3*t][3*n].y)+3*(e[3*t][3*n+1].y+e[3*t+2][3*n+3].y)+-1*e[3*t][3*n+3].y)/9,e[3*t+2][3*n+2].y=(-4*e[3*t+3][3*n+3].y+6*(e[3*t+3][3*n+2].y+e[3*t+2][3*n+3].y)+-2*(e[3*t+3][3*n].y+e[3*t][3*n+3].y)+3*(e[3*t][3*n+2].y+e[3*t+2][3*n].y)+-1*e[3*t][3*n].y)/9}}this.nodes=e,this.colors=s}paintMesh(t,e){let s=(this.nodes.length-1)/3,r=(this.nodes[0].length-1)/3;if(&quot;bilinear&quot;===this.type||s&lt;2||r&lt;2){let n;for(let o=0;o&lt;s;++o)for(let s=0;s&lt;r;++s){let r=[];for(let t=3*o,e=3*o+4;t&lt;e;++t)r.push(this.nodes[t].slice(3*s,3*s+4));let i=[];i.push(this.colors[o].slice(s,s+2)),i.push(this.colors[o+1].slice(s,s+2)),(n=new m(r,i)).paint(t,e)}}else{let n,o,a,h,l,d,u;const x=s,g=r;s++,r++;let w=new Array(s);for(let t=0;t&lt;s;++t){w[t]=new Array(r);for(let e=0;e&lt;r;++e)w[t][e]=[],w[t][e][0]=this.nodes[3*t][3*e],w[t][e][1]=this.colors[t][e]}for(let t=0;t&lt;s;++t)for(let e=0;e&lt;r;++e)0!==t&amp;&amp;t!==x&amp;&amp;(n=i(w[t-1][e][0],w[t][e][0]),o=i(w[t+1][e][0],w[t][e][0]),w[t][e][2]=c(w[t-1][e][1],w[t][e][1],w[t+1][e][1],n,o)),0!==e&amp;&amp;e!==g&amp;&amp;(n=i(w[t][e-1][0],w[t][e][0]),o=i(w[t][e+1][0],w[t][e][0]),w[t][e][3]=c(w[t][e-1][1],w[t][e][1],w[t][e+1][1],n,o));for(let t=0;t&lt;r;++t){w[0][t][2]=[],w[x][t][2]=[];for(let e=0;e&lt;4;++e)n=i(w[1][t][0],w[0][t][0]),o=i(w[x][t][0],w[x-1][t][0]),w[0][t][2][e]=n&gt;0?2*(w[1][t][1][e]-w[0][t][1][e])/n-w[1][t][2][e]:0,w[x][t][2][e]=o&gt;0?2*(w[x][t][1][e]-w[x-1][t][1][e])/o-w[x-1][t][2][e]:0}for(let t=0;t&lt;s;++t){w[t][0][3]=[],w[t][g][3]=[];for(let e=0;e&lt;4;++e)n=i(w[t][1][0],w[t][0][0]),o=i(w[t][g][0],w[t][g-1][0]),w[t][0][3][e]=n&gt;0?2*(w[t][1][1][e]-w[t][0][1][e])/n-w[t][1][3][e]:0,w[t][g][3][e]=o&gt;0?2*(w[t][g][1][e]-w[t][g-1][1][e])/o-w[t][g-1][3][e]:0}for(let s=0;s&lt;x;++s)for(let r=0;r&lt;g;++r){let n=i(w[s][r][0],w[s+1][r][0]),o=i(w[s][r+1][0],w[s+1][r+1][0]),c=i(w[s][r][0],w[s][r+1][0]),x=i(w[s+1][r][0],w[s+1][r+1][0]),g=[[],[],[],[]];for(let t=0;t&lt;4;++t){(d=[])[0]=w[s][r][1][t],d[1]=w[s+1][r][1][t],d[2]=w[s][r+1][1][t],d[3]=w[s+1][r+1][1][t],d[4]=w[s][r][2][t]*n,d[5]=w[s+1][r][2][t]*n,d[6]=w[s][r+1][2][t]*o,d[7]=w[s+1][r+1][2][t]*o,d[8]=w[s][r][3][t]*c,d[9]=w[s+1][r][3][t]*x,d[10]=w[s][r+1][3][t]*c,d[11]=w[s+1][r+1][3][t]*x,d[12]=0,d[13]=0,d[14]=0,d[15]=0,u=f(d);for(let e=0;e&lt;9;++e){g[t][e]=[];for(let s=0;s&lt;9;++s)g[t][e][s]=p(u,e/8,s/8),g[t][e][s]&gt;255?g[t][e][s]=255:g[t][e][s]&lt;0&amp;&amp;(g[t][e][s]=0)}}h=[];for(let t=3*s,e=3*s+4;t&lt;e;++t)h.push(this.nodes[t].slice(3*r,3*r+4));l=y(h);for(let s=0;s&lt;8;++s)for(let r=0;r&lt;8;++r)(a=new m(l[s][r],[[[g[0][s][r],g[1][s][r],g[2][s][r],g[3][s][r]],[g[0][s][r+1],g[1][s][r+1],g[2][s][r+1],g[3][s][r+1]]],[[g[0][s+1][r],g[1][s+1][r],g[2][s+1][r],g[3][s+1][r]],[g[0][s+1][r+1],g[1][s+1][r+1],g[2][s+1][r+1],g[3][s+1][r+1]]]])).paint(t,e)}}}transform(t){if(t instanceof x)for(let e=0,s=this.nodes.length;e&lt;s;++e)for(let s=0,r=this.nodes[0].length;s&lt;r;++s)this.nodes[e][s]=this.nodes[e][s].add(t);else if(t instanceof g)for(let e=0,s=this.nodes.length;e&lt;s;++e)for(let s=0,r=this.nodes[0].length;s&lt;r;++s)this.nodes[e][s]=this.nodes[e][s].transform(t)}scale(t){for(let e=0,s=this.nodes.length;e&lt;s;++e)for(let s=0,r=this.nodes[0].length;s&lt;r;++s)this.nodes[e][s]=this.nodes[e][s].scale(t)}}document.querySelectorAll(&quot;rect,circle,ellipse,path,text&quot;).forEach((r,n)=&gt;{let o=r.getAttribute(&quot;id&quot;);o||(o=&quot;patchjs_shape&quot;+n,r.setAttribute(&quot;id&quot;,o));const i=r.style.fill.match(/^url\(\s*&quot;?\s*#([^\s&quot;]+)&quot;?\s*\)/),a=r.style.stroke.match(/^url\(\s*&quot;?\s*#([^\s&quot;]+)&quot;?\s*\)/);if(i&amp;&amp;i[1]){const a=document.getElementById(i[1]);if(a&amp;&amp;&quot;meshgradient&quot;===a.nodeName){const i=r.getBBox();let l=document.createElementNS(s,&quot;canvas&quot;);d(l,{width:i.width,height:i.height});const c=l.getContext(&quot;2d&quot;);let u=c.createImageData(i.width,i.height);const f=new b(a);&quot;objectBoundingBox&quot;===a.getAttribute(&quot;gradientUnits&quot;)&amp;&amp;f.scale(new x(i.width,i.height));const p=a.getAttribute(&quot;gradientTransform&quot;);null!=p&amp;&amp;f.transform(h(p)),&quot;userSpaceOnUse&quot;===a.getAttribute(&quot;gradientUnits&quot;)&amp;&amp;f.transform(new x(-i.x,-i.y)),f.paintMesh(u.data,l.width),c.putImageData(u,0,0);const y=document.createElementNS(t,&quot;image&quot;);d(y,{width:i.width,height:i.height,x:i.x,y:i.y});let g=l.toDataURL();y.setAttributeNS(e,&quot;xlink:href&quot;,g),r.parentNode.insertBefore(y,r),r.style.fill=&quot;none&quot;;const w=document.createElementNS(t,&quot;use&quot;);w.setAttributeNS(e,&quot;xlink:href&quot;,&quot;#&quot;+o);const m=&quot;patchjs_clip&quot;+n,M=document.createElementNS(t,&quot;clipPath&quot;);M.setAttribute(&quot;id&quot;,m),M.appendChild(w),r.parentElement.insertBefore(M,r),y.setAttribute(&quot;clip-path&quot;,&quot;url(#&quot;+m+&quot;)&quot;),u=null,l=null,g=null}}if(a&amp;&amp;a[1]){const o=document.getElementById(a[1]);if(o&amp;&amp;&quot;meshgradient&quot;===o.nodeName){const i=parseFloat(r.style.strokeWidth.slice(0,-2))*(parseFloat(r.style.strokeMiterlimit)||parseFloat(r.getAttribute(&quot;stroke-miterlimit&quot;))||1),a=r.getBBox(),l=Math.trunc(a.width+i),c=Math.trunc(a.height+i),u=Math.trunc(a.x-i/2),f=Math.trunc(a.y-i/2);let p=document.createElementNS(s,&quot;canvas&quot;);d(p,{width:l,height:c});const y=p.getContext(&quot;2d&quot;);let g=y.createImageData(l,c);const w=new b(o);&quot;objectBoundingBox&quot;===o.getAttribute(&quot;gradientUnits&quot;)&amp;&amp;w.scale(new x(l,c));const m=o.getAttribute(&quot;gradientTransform&quot;);null!=m&amp;&amp;w.transform(h(m)),&quot;userSpaceOnUse&quot;===o.getAttribute(&quot;gradientUnits&quot;)&amp;&amp;w.transform(new x(-u,-f)),w.paintMesh(g.data,p.width),y.putImageData(g,0,0);const M=document.createElementNS(t,&quot;image&quot;);d(M,{width:l,height:c,x:0,y:0});let S=p.toDataURL();M.setAttributeNS(e,&quot;xlink:href&quot;,S);const k=&quot;pattern_clip&quot;+n,A=document.createElementNS(t,&quot;pattern&quot;);d(A,{id:k,patternUnits:&quot;userSpaceOnUse&quot;,width:l,height:c,x:u,y:f}),A.appendChild(M),o.parentNode.appendChild(A),r.style.stroke=&quot;url(#&quot;+k+&quot;)&quot;,g=null,p=null,S=null}}})}();
</script>
    <path
       id="path19"
       style="fill:#000000;fill-opacity:1;stroke:none;stroke-width:1.03759"
       d="m 242.98663,110.88052 c 0.88142,0.005 1.61208,0.5105 1.71372,1.42237 0.0811,0.72713 -0.13913,1.54589 -0.24498,2.26449 -0.29087,1.97445 -0.20496,5.72933 -2.97846,5.72487 -0.83154,-8.8e-4 -1.63695,-0.47325 -1.77499,-1.34666 -0.12628,-0.79901 0.17091,-1.77654 0.30254,-2.56654 0.33107,-1.98715 0.19004,-5.51199 2.98217,-5.49853 m 0.15098,-1.96044 c -4.28335,0.16003 -4.81373,3.68588 -5.32506,7.15704 -0.35312,2.39699 -0.99787,5.36349 2.15461,6.08715 0.53849,0.1236 1.11098,0.12173 1.66073,0.0968 4.13103,-0.18728 4.46532,-4.04148 4.99422,-7.24078 0.48632,-2.94167 0.50362,-6.24921 -3.4845,-6.10022 m 86.80963,1.96045 c 0.88138,0.005 1.61209,0.51049 1.7137,1.42237 0.0811,0.72712 -0.13912,1.54588 -0.24499,2.26449 -0.29087,1.97445 -0.20493,5.72932 -2.97844,5.72487 -0.83153,-8.8e-4 -1.63694,-0.47326 -1.77497,-1.34666 -0.12628,-0.79903 0.17091,-1.77652 0.30251,-2.56654 0.33105,-1.98716 0.19005,-5.51199 2.98219,-5.49853 m 0.15097,-1.96045 c -4.28333,0.16003 -4.81375,3.68588 -5.32508,7.15704 -0.35309,2.397 -0.99787,5.3635 2.15464,6.08716 0.5385,0.1236 1.11097,0.12172 1.6607,0.0968 4.13105,-0.18728 4.46532,-4.04148 4.99426,-7.24079 0.48631,-2.94167 0.50356,-6.2492 -3.48452,-6.10021 m 10.7191,1.96044 c 0.88141,0.005 1.61208,0.5105 1.71371,1.42237 0.0811,0.72712 -0.13912,1.54591 -0.24498,2.26449 -0.29088,1.97446 -0.20493,5.72933 -2.97845,5.72487 -0.83153,-8.8e-4 -1.63694,-0.47325 -1.77498,-1.34666 -0.12628,-0.79902 0.17091,-1.77652 0.30251,-2.56654 0.33105,-1.98715 0.19005,-5.51199 2.98219,-5.49853 m 0.15098,-1.96044 c -4.28336,0.16003 -4.81372,3.68588 -5.32508,7.15703 -0.35312,2.397 -0.99784,5.3635 2.15463,6.08716 0.53849,0.1236 1.11098,0.12173 1.6607,0.0968 4.13105,-0.18728 4.46533,-4.04148 4.99426,-7.24078 0.48632,-2.94168 0.50358,-6.24921 -3.48451,-6.10022 m 18.11678,9.72357 h -2.2646 c 0.0388,4.68907 7.09426,4.75472 8.64112,0.90585 0.8059,-2.0052 0.025,-4.04349 -1.9983,-4.82136 -1.01368,-0.38972 -2.95503,-0.58532 -3.08236,-1.97255 -0.19581,-2.13328 3.58262,-2.58161 3.83723,-0.30184 h 2.2646 c -0.002,-4.4992 -6.6956,-4.78173 -8.13835,-0.90583 -0.7236,1.94396 -0.009,3.80819 1.94846,4.61167 1.11073,0.45573 3.03296,0.63848 3.12233,2.18211 0.14459,2.4977 -3.75552,2.50301 -4.33013,0.30195 m -58.12471,-3.47238 c -0.98906,0 -3.63897,-0.47278 -4.41712,0.15518 -0.38456,0.31032 -0.35658,1.20242 -0.41401,1.6565 h 2.2646 c -0.14516,1.14249 -0.32868,2.22165 -1.35935,2.91336 -1.04614,0.70206 -2.80778,0.33256 -2.97089,-1.10168 -0.18061,-1.58798 0.36957,-5.47919 1.28875,-6.78727 1.03487,-1.47271 3.21015,-1.273 3.79635,0.44639 h 2.2646 c -0.1639,-3.76041 -4.90967,-4.53597 -7.3836,-2.23292 -1.91188,1.77986 -2.0291,5.95561 -2.25295,8.42282 -0.32652,3.59887 4.11237,4.48625 6.61709,2.87317 2.19256,-1.41208 2.13521,-4.05628 2.56653,-6.34555 m -73.07105,-6.03892 -1.96265,12.98369 h 1.96265 l 1.50974,-10.71909 h 0.15098 l 0.75486,4.9821 c 0.52136,0 1.29356,0.13776 1.75273,-0.15517 1.12651,-0.71859 1.90783,-3.59813 2.32354,-4.82693 h 0.15097 l -1.81168,10.71909 h 2.11363 l 1.96266,-12.98369 h -2.86849 l -2.2646,5.43503 -0.72471,-3.77432 -0.44406,-1.50554 -2.60557,-0.15517 m 22.64599,10.87007 1.35876,-8.90742 c 1.01974,0 2.49939,-0.21842 3.25595,0.63827 0.49641,0.56208 0.38449,1.39768 0.27829,2.07925 -0.2602,1.67009 -0.1749,4.52638 -1.57822,5.67746 -0.903,0.74067 -2.22462,0.51244 -3.31478,0.51244 m -0.60389,-10.87007 -1.96265,12.98369 c 2.40472,0 5.38006,0.48698 7.39174,-1.13672 0.59949,-0.48385 1.08294,-1.16083 1.35049,-1.88274 0.84527,-2.28069 2.08464,-7.57224 -0.13908,-9.2971 -1.62049,-1.25694 -4.71036,-0.66713 -6.6405,-0.66713 m 11.47397,10.87007 1.35875,-8.90742 c 1.01974,0 2.4994,-0.21842 3.25594,0.63827 0.49642,0.56208 0.38449,1.39768 0.27831,2.07925 -0.2602,1.67009 -0.1749,4.52638 -1.57823,5.67746 -0.90298,0.74067 -2.22461,0.51244 -3.31477,0.51244 z m -0.60389,-10.87007 -1.96267,12.98369 c 2.40474,0 5.38007,0.48698 7.39176,-1.13672 0.59947,-0.48385 1.08292,-1.16083 1.35049,-1.88274 0.84527,-2.28069 2.08463,-7.57224 -0.13909,-9.2971 -1.62048,-1.25694 -4.71035,-0.66713 -6.64049,-0.66713 m 10.87006,1.96265 h 2.71752 l -1.35875,9.0584 h -2.86849 l -0.30195,1.96264 h 7.85061 l 0.30194,-1.96264 h -2.71752 l 1.35877,-9.0584 c 1.88472,0 2.9737,0.25435 3.01945,-1.96265 h -5.43503 l -2.15264,0.15517 -0.41391,1.80748 m 10.87009,-1.96265 -2.11363,12.98369 h 2.11363 l 1.35875,-10.87007 h 0.30195 l 1.81168,10.87007 h 2.86849 l 1.96265,-12.98369 h -1.96265 l -1.50974,10.87007 h -0.15096 l -1.8117,-10.87007 h -2.86847 m 32.00633,0 -0.30195,1.96265 h 3.62335 l -1.6607,11.02104 h 2.2646 l 1.6607,-11.02104 h 3.62336 l 0.30195,-1.96265 h -9.51131 m 33.96898,0 -1.96266,12.98369 h 7.85062 l 0.30193,-2.11362 h -5.58601 l 1.6607,-10.87007 h -2.26458" />
    <path
       id="path7"
       style="fill:#000000;fill-opacity:1;stroke:none;stroke-width:1.03759"
       d="m 301.71523,88.64541 c 5.26492,-0.517633 6.00306,6.978156 0.75488,7.477596 -3.38409,0.322056 -6.45447,-3.630715 -3.59121,-6.416586 0.74743,-0.727239 1.83143,-0.962207 2.83633,-1.06101 m 4.37824,-2.763352 c -3.54188,-3.064569 -10.58794,-3.126861 -13.79659,0.609832 -3.61418,4.208996 -2.38598,11.66763 2.9265,13.81524 1.7608,0.71179 3.57435,0.71779 5.43506,0.67448 2.33326,-0.0543 3.80715,-0.91429 5.73696,-2.115848 v 1.509738 h 7.09576 V 84.825256 c 0,-1.592145 0.60979,-4.717514 -0.0911,-6.141917 -0.24917,-0.506329 -1.1111,-0.349898 -1.56963,-0.349935 h -4.07626 c -0.42318,3.7e-5 -1.20404,-0.138612 -1.50555,0.242072 -0.35152,0.44385 -0.15515,1.489419 -0.15515,2.022528 v 5.284054 m -72.16522,7.096144 c 1.07502,3.645155 -4.54303,5.205248 -7.08923,3.821978 -2.0682,-1.123589 -0.35473,-2.90672 1.20126,-3.109624 0.75222,-0.09806 1.50891,-0.193256 2.26461,-0.259434 1.2161,-0.106507 2.42231,-0.226629 3.62336,-0.45292 m -14.64442,-3.925695 c 2.0883,0 4.92014,0.507286 6.92904,-0.04808 0.59278,-0.163855 0.89082,-0.866442 1.37682,-1.212338 0.79981,-0.569238 1.77907,-0.551304 2.7152,-0.551357 0.95579,-5.3e-5 5.11765,0.797842 2.99709,2.460429 -1.01457,0.795447 -2.85262,0.531814 -4.05391,0.561248 -3.27207,0.08025 -9.31935,-0.293354 -10.95407,3.319195 -1.32924,2.937502 0.36405,5.969588 3.25443,6.944196 3.67857,1.24039 9.64618,0.92047 12.68175,-1.660124 l 0.4139,1.354564 2.00168,0.15517 h 5.43504 c -1.1044,-2.862928 -0.60389,-6.322612 -0.60389,-9.360347 0,-1.863749 -0.0599,-3.821959 -1.4042,-5.269961 -1.21565,-1.309462 -3.09905,-1.712198 -4.78571,-1.988887 -1.09832,-0.180145 -2.20871,-0.289742 -3.3214,-0.289814 -4.25206,-2.68e-4 -12.40624,-0.443501 -12.68177,5.586011 m 60.3893,3.925749 c 1.04952,3.652796 -4.73453,5.29322 -7.24007,3.760927 -1.98494,-1.213902 -0.11198,-2.868124 1.35213,-3.049029 0.7031,-0.08694 1.40665,-0.206971 2.11361,-0.255252 1.26048,-0.08614 2.53121,-0.225021 3.77433,-0.456646 m -14.79537,-4.076728 c 1.54631,0.457067 3.52341,0.150979 5.13309,0.150979 0.6101,0 1.50611,0.162542 2.0739,-0.0911 1.08267,-0.483659 1.33888,-1.540156 2.75724,-1.694371 1.26954,-0.138039 3.78471,-0.303656 4.5016,1.04481 0.40031,0.753048 -0.16743,1.446528 -0.87882,1.676204 -1.48371,0.479014 -3.15191,0.199877 -4.67958,0.380113 -2.22934,0.263042 -4.46852,-0.0294 -6.64283,0.729116 -3.62695,1.265193 -5.07339,6.334894 -1.50915,8.689231 1.56986,1.036985 3.32262,1.122485 5.1325,1.198805 3.27582,0.13819 6.50992,-0.0449 9.20937,-2.119543 l 0.38711,1.354553 2.02846,0.15517 h 5.43504 c -2.00329,-4.267563 1.13837,-10.171234 -1.69402,-14.189271 -1.38884,-1.97021 -4.0955,-2.327973 -6.30756,-2.576326 -5.08118,-0.570488 -13.51678,-0.944121 -14.94635,5.29163 m 62.80488,-0.560212 c 1.48087,-0.1948 3.40828,-0.134314 4.49693,1.028985 2.20807,2.359508 0.72012,6.477144 -2.38332,6.885242 -1.48474,0.195246 -3.43125,0.03628 -4.47024,-1.178311 -1.96662,-2.299201 -0.64311,-6.341266 2.35663,-6.735916 m -1.05682,-4.810758 c -2.53675,0.334073 -5.18957,0.535557 -7.24672,2.249704 -3.45872,2.882046 -3.72742,9.707928 -0.30136,12.755707 3.20567,2.851746 8.95627,2.881926 12.98312,2.400316 2.41931,-0.28935 4.99846,-0.90634 6.78015,-2.688049 2.78028,-2.780268 2.81408,-8.895717 0.15052,-11.761679 -2.81188,-3.025574 -8.48234,-3.467378 -12.36571,-2.955999 m -122.89224,5.112833 c 5.2743,-0.585018 6.17327,6.960571 0.90585,7.479115 -1.22247,0.120339 -2.84562,-0.163284 -3.74207,-1.063226 -1.32568,-1.330818 -1.26424,-4.249118 0.13456,-5.502471 0.71986,-0.645048 1.77183,-0.81028 2.70166,-0.913418 m -3.9253,-2.610345 c 0,-0.480057 0.18385,-1.470153 -0.24207,-1.80748 -0.36971,-0.292817 -1.13022,-0.15517 -1.5696,-0.15517 h -3.77435 c -0.42167,2.7e-5 -1.18236,-0.137138 -1.48269,0.242062 -0.64686,0.816697 -0.17801,3.418722 -0.17801,4.438101 v 12.379806 c 0,1.08114 -0.52188,4.03618 0.15518,4.89101 0.35324,0.44601 1.45789,0.24207 1.95845,0.24207 h 5.28406 v -7.397673 c 1.83639,1.277153 3.30005,2.062623 5.58602,2.115833 1.8353,0.0427 3.54997,0.028 5.28406,-0.67449 5.03471,-2.039506 6.68564,-9.084279 3.36975,-13.368236 -3.16756,-4.092322 -10.72448,-4.404619 -14.3908,-0.905833 m 52.84065,1.207782 -0.15516,-2.92837 -1.8075,-0.242062 h -5.13309 V 100.3754 h 7.24673 c 0,-3.896424 -0.99272,-9.852288 4.37821,-10.391403 1.73533,-0.174176 3.28743,0.353277 4.98212,0.427177 v -4.680172 c 0,-0.46401 0.158,-1.312544 -0.15518,-1.699617 -0.41796,-0.516605 -1.82092,-0.263079 -2.41138,-0.263034 -2.99864,1.88e-4 -4.90969,1.400178 -6.94475,3.472382 m 90.13103,-3.01947 c 1.28989,1.949998 3.10418,3.707803 4.68018,5.435041 0.4749,0.520483 1.71169,1.507783 1.69143,2.2646 -0.0218,0.813604 -1.33974,1.840775 -1.84999,2.415571 -1.64696,1.855269 -3.98378,3.837703 -5.12552,6.038925 h 6.64282 c 0.74602,0 2.00808,0.23952 2.66849,-0.15517 1.18907,-0.710644 2.48423,-3.13898 3.06849,-4.374024 l 3.34927,4.374024 2.68968,0.15517 h 6.64282 c -1.5667,-2.291142 -3.70924,-4.242445 -5.52207,-6.340866 -0.4445,-0.514523 -1.79527,-1.500375 -1.64288,-2.264601 0.1422,-0.713183 1.2453,-1.594736 1.73527,-2.113629 1.37646,-1.457626 4.13254,-3.653931 4.67481,-5.586003 h -6.34086 l -2.53869,0.242062 -3.04734,4.13615 c -0.55223,-1.16731 -1.75956,-3.550954 -2.89644,-4.200228 -0.63795,-0.364331 -1.67893,-0.177984 -2.38761,-0.177984 -2.00732,0 -4.56637,-0.418168 -6.49185,0.150962" />
  </g>
</svg>
